<?xml version="1.0" encoding="UTF-8" standalone="no"?>
<!-- Generator: Adobe Illustrator 16.0.0, SVG Export Plug-In . SVG Version: 6.00 Build 0)  -->
<svg xmlns:dc="http://purl.org/dc/elements/1.1/" xmlns:cc="http://creativecommons.org/ns#" xmlns:rdf="http://www.w3.org/1999/02/22-rdf-syntax-ns#" xmlns:svg="http://www.w3.org/2000/svg" xmlns="http://www.w3.org/2000/svg" xmlns:sodipodi="http://sodipodi.sourceforge.net/DTD/sodipodi-0.dtd" xmlns:inkscape="http://www.inkscape.org/namespaces/inkscape" version="1.1" id="Layer_2" x="0px" y="0px" width="1000" height="1000" viewBox="0 0 999.99998 999.99998" xml:space="preserve" inkscape:version="0.48.4 r9939" sodipodi:docname="Big-Dog-Cartoon-Vector.svg"><metadata id="metadata3801"/><defs id="defs3799"/>
<g id="g3395" transform="translate(87.278988,99.700102)">
	<g id="g3397">
		<path d="m 159.194,149.835 c 0,0 -218.496,351.341 153.821,540.123 127.601,54.188 342.601,12.235 389.797,-132.847 -69.92,-43.699 -85.651,-41.95 -85.651,-41.95 0,0 -185.284,80.406 -291.911,66.423 -106.626,-13.984 -164.309,-314.635 -92.642,-430 -73.414,-1.749 -73.414,-1.749 -73.414,-1.749 z" id="path3399" inkscape:connector-curvature="0" style="fill:#ba0404"/>
		<path d="m 159.194,149.835 c 0,0 -218.496,351.341 153.821,540.123 127.601,54.188 342.601,12.235 389.797,-132.847 -69.92,-43.699 -139.837,100.801 -139.837,100.801 0,0 -120.219,65.164 -247.047,2.33 C 188.908,597.315 54.899,421.354 207.553,142.844 c -73.413,-1.748 -48.359,6.991 -48.359,6.991 z" id="path3401" inkscape:connector-curvature="0" style="fill:#e00016"/>
		<g id="g3403">
			<path d="m 128.875,344.546 c 0,0 -27.8,56.559 7.596,101.57 3.781,-14.687 5.428,-25.441 5.428,-25.441 0,0 -18.101,-29.182 -13.024,-76.129 z" id="path3405" inkscape:connector-curvature="0" style="fill:#ba0404"/>
		</g>
		<path d="m 311.647,693.176 -0.099,-0.046 -0.115,-0.057 C 139.124,605.847 91.861,482.883 91.993,376.236 l 0,0 c 0.051,-125.164 64.095,-227.962 64.23,-228.249 l 0,0 1.054,-1.697 1.997,0.048 c 0.074,0.003 0,0 73.417,1.748 l 0,0 6.11,0.147 -3.224,5.195 c -21.406,34.375 -31.262,86.566 -31.232,142.675 l 0,0 c -0.092,95.348 28.423,202.093 72.881,252.483 l 0,0 c 14.782,16.812 31.104,27.258 48.474,29.53 l 0,0 c 8.354,1.09 17.24,1.601 26.514,1.601 l 0,0 c 80.08,0.052 188.51,-38.083 237.483,-57.185 l 0,0 c 16.34,-6.358 26.044,-10.569 26.069,-10.581 l 0,0 0.438,-0.188 0.459,-0.064 c 0.183,-0.025 0.431,-0.048 0.771,-0.048 l 0,0 c 3.774,0.095 22.217,1.935 87.226,42.498 l 0,0 2.316,1.442 -0.843,2.599 c -17.354,53.341 -56.942,92.911 -106.203,119.032 l 0,0 c -49.283,26.139 -108.313,38.972 -165.256,38.979 l 0,0 c -44.066,-0.003 -86.896,-7.688 -123.027,-23.025 l 0,0 z m 123.03,16.035 c 55.896,0.007 113.912,-12.651 161.98,-38.164 l 0,0 c 47.275,-25.096 84.859,-62.465 101.964,-112.431 l 0,0 C 640.366,522.37 621.004,518.887 617.873,518.654 l 0,0 c -11.263,4.782 -160.382,67.967 -265.657,68.057 l 0,0 c -9.531,0 -18.715,-0.523 -27.421,-1.661 l 0,0 c -19.617,-2.582 -37.341,-14.239 -52.818,-31.849 l 0,0 c -15.495,-17.636 -28.875,-41.33 -39.912,-68.662 l 0,0 C 210.012,429.869 197.362,360.595 197.352,296.104 l 0,0 c 0.024,-54.259 8.91,-105.124 29.215,-141.168 l 0,0 c -32.765,-0.78 -49.611,-1.181 -58.281,-1.389 l 0,0 c -3.628,-0.086 -5.82,-0.138 -7.145,-0.169 l 0,0 c -0.426,0.719 -0.981,1.667 -1.652,2.838 l 0,0 c -1.719,3.004 -4.183,7.447 -7.146,13.168 l 0,0 c -5.922,11.444 -13.832,28.012 -21.74,48.426 l 0,0 c -15.826,40.83 -31.622,97.045 -31.618,158.427 l 0,0 c 0.132,104.558 45.331,224.053 215.463,310.528 l 0,0 c 35.052,14.881 76.998,22.45 120.229,22.446 l 0,0 z M 159.11,153.33 l 0.085,-3.495 -0.085,3.495 0,0 z" id="path3407" inkscape:connector-curvature="0"/>
	</g>
	<g id="g3409">
		<path d="m 137.636,296.665 c 0,0 0,-128.184 54.384,-146.829 23.692,16.313 20.197,22.141 20.197,22.141 0,0 -32.63,1.165 -74.581,124.688 z" id="path3411" inkscape:connector-curvature="0" style="fill:#ba0404"/>
	</g>
	<g id="g3413">
		<path d="m 139.967,275.689 c 0,0 18.353,-98.761 45.447,-111.87 15.732,5.244 15.732,5.244 15.732,5.244 0,0 -26.22,6.992 -61.179,106.626 z" id="path3415" inkscape:connector-curvature="0"/>
	</g>
	<g id="g3417">
		<path d="m 210.759,169.063 c 0,0 -26.219,-11.362 -103.13,24.472 C 53.441,216.258 27.222,225.872 28.97,188.291 30.719,150.71 58.686,45.831 109.377,38.84 160.068,31.848 170.556,14.368 175.8,10.872 c 5.244,-3.496 66.422,-24.471 97.012,47.195 -24.472,27.094 -48.069,63.801 -62.053,110.996 z" id="path3419" inkscape:connector-curvature="0" style="fill:#8e6a30"/>
	</g>
	<g id="g3421">
		<path d="m 227.365,127.695 c 0,0 -52.439,-26.803 -120.027,50.108 C 66.551,215.094 27.222,225.872 28.97,188.291 30.718,150.71 71.795,69.43 122.486,62.437 c 50.691,-6.992 48.943,-31.463 54.187,-34.959 5.244,-3.497 49.817,-22.724 80.406,48.943 -24.47,27.093 -7.572,10.488 -29.714,51.274 z" id="path3423" inkscape:connector-curvature="0" style="fill:#b68b3a"/>
	</g>
	<g id="g3425">
		<path d="m 678.119,708.324 c 0,0 -66.841,-40.704 -59.185,-51.701 7.653,-10.995 25.666,-21.791 34.054,-19.916 12.582,2.811 18.231,47.487 25.131,71.617 z" id="path3427" inkscape:connector-curvature="0" style="fill:#8e8d8d"/>
		<path d="m 664.357,688.21 c 0,0 -43.78,-25.129 -36.125,-36.125 7.655,-10.997 6.762,-11.196 15.149,-9.322 12.58,2.811 14.077,21.317 20.976,45.447 z" id="path3429" inkscape:connector-curvature="0" style="fill:#c9c9c9"/>
		<path d="m 676.297,711.307 c -0.036,-0.021 -11.524,-7.017 -24.497,-16.035 l 0,0 c -13.009,-9.092 -27.351,-19.881 -33.748,-28.627 l 0,0 c -1.802,-2.563 -3.167,-5.002 -3.23,-7.985 l 0,0 c -0.01,-1.343 0.379,-2.839 1.241,-4.033 l 0,0 c 3.933,-5.624 9.946,-10.849 16.26,-14.837 l 0,0 c 6.357,-3.948 12.827,-6.73 18.566,-6.798 l 0,0 c 0.952,0 1.917,0.083 2.86,0.303 l 0,0 c 5.104,1.3 8.029,5.64 10.645,10.869 l 0,0 c 2.582,5.33 4.71,12.087 6.668,19.463 l 0,0 c 3.892,14.716 7.039,31.948 10.416,43.732 l 0,0 -3.359,0.963 1.818,-2.984 -1.818,2.984 3.359,-0.963 2.466,8.611 -7.647,-4.663 0,0 z m -40.249,-65.599 c -5.65,3.539 -11.114,8.383 -14.267,12.938 l 0,0 c 0,0 0.032,0.013 0.035,0.013 l 0,0 c -0.184,0.539 1.314,3.719 4.597,7.136 l 0,0 c 3.206,3.496 7.828,7.561 12.999,11.662 l 0,0 c 10.35,8.217 22.903,16.637 31.258,22.029 l 0,0 c 0.643,0.416 1.263,0.814 1.854,1.193 l 0,0 c -4.367,-18.065 -8.573,-41.541 -14.419,-53.467 l 0,0 c -2.195,-4.688 -4.693,-6.99 -5.908,-7.102 l 0,0 c -0.326,-0.076 -0.768,-0.127 -1.308,-0.127 l 0,0 c -0.047,-0.003 -0.096,-0.003 -0.143,-0.003 l 0,0 c -3.294,10e-4 -9.175,2.196 -14.698,5.728 l 0,0 z" id="path3431" inkscape:connector-curvature="0"/>
	</g>
	<g id="g3433">
		<path d="m 304.276,639.267 c 0,0 78.659,73.415 173.049,31.464 33.211,19.228 166.057,20.976 202.765,-83.902 -68.172,3.496 -82.154,15.731 -101.383,-3.496 -31.463,17.479 -99.634,20.976 -108.373,0 -17.481,12.235 -73.416,52.439 -96.139,15.731 -19.228,17.479 -48.944,34.959 -69.919,40.203 z" id="path3435" inkscape:connector-curvature="0" style="fill:#8e6a30"/>
		<path d="m 322.63,634.023 c 0,0 60.305,64.674 154.695,22.724 33.211,19.227 151.198,12.235 188.78,-70.793 -68.17,3.495 -68.17,16.605 -87.398,-2.622 -31.463,17.479 -99.634,20.976 -108.373,0 -17.481,12.235 -73.416,52.439 -96.139,15.731 -19.228,17.48 -30.591,29.716 -51.565,34.96 z" id="path3437" inkscape:connector-curvature="0" style="fill:#b68b3a"/>
		<path d="M 417.416,687.17 C 350.232,687.079 302.19,642.031 301.89,641.822 l 0,0 -4.697,-4.39 6.236,-1.558 c 20.048,-4.958 49.687,-22.314 68.412,-39.4 l 0,0 3.112,-2.825 2.213,3.572 c 6.273,9.967 14.497,13.351 24.512,13.444 l 0,0 c 11.65,0.035 25.391,-5.27 37.597,-11.795 l 0,0 c 12.229,-6.509 22.929,-14.116 29.054,-18.403 l 0,0 3.557,-2.496 1.675,4.017 c 1.378,3.483 5.805,6.784 12.921,8.982 l 0,0 c 7.044,2.212 16.391,3.319 26.541,3.311 l 0,0 c 22.219,0.039 48.41,-5.304 63.987,-14.009 l 0,0 2.301,-1.281 1.869,1.866 c 7.622,7.464 13.16,9.416 23.098,9.53 l 0,0 c 13.94,0.04 35.655,-4.992 75.634,-7.054 l 0,0 5.198,-0.269 -1.723,4.914 c -12.992,37.178 -37.957,61.446 -66.195,76.203 l 0,0 c -28.258,14.775 -59.77,20.221 -86.538,20.228 l 0,0 c -22.789,-0.041 -42.028,-3.85 -53.496,-9.793 l 0,0 c -20.856,9.009 -41.013,12.553 -59.712,12.553 l 0,0 c -0.011,10e-4 -0.021,10e-4 -0.03,10e-4 l 0,0 z M 314.847,643.42 c 5.375,4.077 13.237,9.535 23.104,14.99 l 0,0 c 19.749,10.917 47.489,21.775 79.464,21.769 l 0,0 c 18.282,-0.004 37.965,-3.528 58.489,-12.646 l 0,0 1.623,-0.723 1.547,0.893 c 9.231,5.41 28.619,9.76 51.577,9.716 l 0,0 c 25.832,0.009 56.334,-5.31 83.294,-19.434 l 0,0 c 25.699,-13.475 48.203,-34.781 61.007,-67.373 l 0,0 c -36.201,2.172 -55.952,6.729 -70.677,6.767 l 0,0 c -10.202,0.106 -18.375,-2.589 -26.184,-9.771 l 0,0 c -17.315,8.791 -42.759,13.633 -65.071,13.667 l 0,0 c -10.654,-0.008 -20.571,-1.118 -28.626,-3.627 l 0,0 c -6.361,-2.011 -11.784,-4.908 -15.14,-9.297 l 0,0 c -6.372,4.444 -15.906,10.945 -26.696,16.694 l 0,0 c -12.728,6.751 -27.192,12.577 -40.882,12.612 l 0,0 c -10.539,0.088 -20.819,-3.798 -28.134,-13.358 l 0,0 c -17.718,15.265 -42.168,29.901 -62.065,36.492 l 0,0 c 0.982,0.789 2.107,1.67 3.37,2.629 l 0,0 z" id="path3439" inkscape:connector-curvature="0" style="fill:#020202"/>
	</g>
	<g id="g3441">
		<path d="m 674.263,47.288 c 0,0 72.249,-28.55 94.099,27.385 21.85,42.825 40.202,62.927 43.699,69.045 3.496,6.118 10.487,37.582 -16.606,72.54 -27.093,34.96 -25.346,34.96 -36.707,25.346 -11.362,-9.614 -32.338,-58.557 -32.338,-58.557 0,0 27.968,-42.825 -27.094,-82.155 2.623,-19.228 -6.991,-33.501 -20.975,-40.785 0,-7.284 -4.078,-12.819 -4.078,-12.819 z" id="path3443" inkscape:connector-curvature="0" style="fill:#8e6a30"/>
	</g>
	<g id="g3445">
		<path d="m 674.263,47.288 c 0,0 60.887,-18.063 82.736,37.873 21.85,42.825 40.203,53.313 43.699,59.43 3.497,6.119 13.109,24.472 -13.984,59.431 -27.093,34.959 -16.605,47.195 -27.967,37.582 -11.362,-9.614 -24.472,-70.793 -24.472,-70.793 0,0 20.102,-30.589 -34.96,-69.919 2.623,-19.228 -6.991,-33.501 -20.975,-40.785 10e-4,-7.284 -4.077,-12.819 -4.077,-12.819 z" id="path3447" inkscape:connector-curvature="0" style="fill:#b68b3a"/>
	</g>
	<g id="g3449">
		<path d="m 807.691,134.104 c -39.62,-5.243 -52.438,-43.699 -52.438,-43.699 0,0 18.644,31.464 41.95,30.882 7.576,9.321 10.488,12.817 10.488,12.817 z" id="path3451" inkscape:connector-curvature="0" style="fill:#020202"/>
	</g>
	<g id="g3453">
		<path d="m 674.263,47.288 c 0,0 68.752,-31.172 90.311,14.566 18.063,41.369 35.543,64.093 48.36,73.415 12.818,9.322 9.905,55.353 -8.156,74.58 -18.063,19.228 -17.481,42.535 -29.717,43.699 -12.235,1.166 -42.533,-23.306 -53.021,-58.266 5.244,-14.567 7.574,-17.48 7.574,-17.48 0,0 1.165,36.707 36.125,64.092 8.157,4.662 15.729,-10.487 25.054,-23.306 9.323,-12.818 18.644,-26.219 20.976,-36.707 2.331,-10.488 8.739,-23.89 -9.322,-46.03 -18.061,-22.14 -36.125,-55.934 -38.455,-65.84 -2.33,-9.906 -17.48,-40.202 -89.729,-22.723 z" id="path3455" inkscape:connector-curvature="0" style="fill:#020202"/>
	</g>
	<g id="g3457">
		<path d="m 159.777,26.895 c -17.479,39.039 -55.935,36.708 -55.935,36.708 0,0 41.951,-11.653 44.282,-36.125 5.827,2.33 11.653,-0.583 11.653,-0.583 z" id="path3459" inkscape:connector-curvature="0" style="fill:#020202"/>
	</g>
	<g id="g3461">
		<path d="m 276.308,56.61 c 0,0 -38.456,-104.878 -129.35,-29.132 C 93.354,39.131 61.89,37.966 42.081,110.215 22.271,182.464 10.618,227.912 57.23,215.093 c 46.612,-12.819 128.185,-64.092 146.829,-25.637 9.322,-20.976 15.149,-50.108 15.149,-50.108 0,0 -30.299,-9.322 -89.729,37.29 -18.645,12.818 -90.895,48.943 -94.391,26.802 -3.496,-23.306 17.48,-149.161 66.423,-157.318 48.942,-8.157 59.43,-18.644 68.753,-26.801 9.322,-8.158 64.092,-38.455 99.051,41.951 2.332,-2.331 6.993,-4.662 6.993,-4.662 z" id="path3463" inkscape:connector-curvature="0" style="fill:#020202"/>
	</g>
	<g id="g3465">
		<path d="m 672.515,593.819 c 0,0 138.672,80.407 149.16,-160.813 5.827,-96.721 -83.029,-138.964 -86.525,-142.459 15.147,-18.645 3.786,-55.643 -21.85,-82.446 25.638,-30.299 30.297,-82.738 -13.984,-107.209 C 706.309,77.587 685.334,67.099 678.341,60.107 680.672,36.8 613.081,-0.489 573.462,21.651 533.843,43.791 456.932,69.428 394.004,43.792 331.078,18.155 242.514,23.982 201.727,203.44 c -4.66,16.314 -23.306,62.927 -19.81,109.539 -23.306,31.464 -97.887,161.396 27.967,286.084 38.455,34.958 97.886,49.525 150.325,18.062 45.448,-1.164 97.886,-9.903 108.375,-22.432 31.464,16.605 92.059,9.615 108.374,-3.203 31.464,13.983 39.622,22.14 95.557,2.329 z" id="path3467" inkscape:connector-curvature="0" style="fill:#8e6a30"/>
		<path d="m 672.515,593.819 c 0,0 138.672,80.407 149.16,-160.813 5.827,-96.721 -96.14,-152.074 -99.635,-155.569 15.147,-18.645 -0.584,-46.612 -26.22,-73.415 C 721.458,173.724 726.117,121.868 681.836,97.396 688.828,74.09 653.869,65.933 646.877,58.94 649.21,35.633 616.578,15.824 576.958,37.964 537.339,60.105 466.836,99.143 400.414,62.436 340.942,29.572 242.515,23.983 201.728,203.44 c -4.66,16.314 -23.306,62.927 -19.81,109.539 -23.306,31.464 -97.887,161.396 27.967,286.084 38.455,34.958 97.886,49.525 150.325,18.062 45.448,-1.164 97.886,-9.903 108.375,-22.432 31.464,16.605 92.059,9.615 108.374,-3.203 31.463,13.983 39.621,22.14 95.556,2.329 z" id="path3469" inkscape:connector-curvature="0" style="fill:#b68b3a"/>
		<path d="m 598.808,191.35 4.345,-6.524 4.013,-1.546 c 4.984,-1.864 21.639,-11.293 24.133,-13.127 l 0,0 c 0.919,-0.652 6.086,-4.867 13.57,-8.712 l 0,0 c 7.54,-3.882 17.681,-7.617 29.252,-7.624 l 0,0 c 8.199,-0.008 26.036,6.958 26.036,6.958 0,0 7.896,6.013 7.899,6.76 l 3.497,1.748 c 4.368,4.588 -0.874,18.135 -0.874,18.135 -8.085,19.009 -17.917,36.052 -55.063,33.43 l 0,0 c 0,0 -44.792,-14.203 -57.027,-28.842 l 0.219,-0.656 z m 53.736,15.611 c 8.023,0.004 15.819,-1.729 22.265,-4.419 l 0,0 c 9.378,-3.918 14.357,-11.678 17.122,-19.543 l 0,0 c 2.443,-6.978 2.944,-13.847 3.019,-17.09 l 0,0 c -7.241,-3.71 -14.237,-5.095 -20.829,-5.102 l 0,0 c -10.029,-0.004 -19.155,3.292 -26.047,6.848 l 0,0 c -6.946,3.593 -11.379,7.221 -12.712,8.184 l 0,0 c -2.997,2.097 -14.248,8.565 -21.658,12.158 l 0,0 c 10.558,13.961 24.94,18.914 38.84,18.964 l 0,0 z" id="path3471" inkscape:connector-curvature="0" style="fill:#8e6a30"/>
		<path d="m 323.503,208.102 c 0,0 -12.673,-23.015 -8.74,-50.108 l 10.925,-5.536 c 12.673,-4.807 25.793,1.501 33.529,1.511 l 0,0 c 8.601,0 14.015,2.924 14.015,2.924 l 0.258,0.14 0.233,0.189 c 13.384,10.782 52.551,31.718 52.551,31.718 5.602,12.169 -1.827,31.251 -20.618,43.924 l 0,0 c -15.73,10.779 -59.138,16.024 -82.153,-24.762 z m 10.246,-36.964 c -0.041,9.341 4.354,22.43 11.881,32.917 l 0,0 c 7.538,10.564 17.942,18.398 29.6,18.927 l 0,0 c 0.963,0.048 1.929,0.07 2.903,0.07 l 0,0 c 10.39,0.012 20.899,-2.727 28.527,-8.306 l 0,0 c 7.619,-5.621 12.566,-13.71 12.624,-25.805 l 0,0 c 0,-0.088 0,-0.178 -10e-4,-0.267 l 0,0 c -16.561,-6.222 -35.631,-14.479 -49.558,-25.544 l 0,0 c -0.084,-0.04 -0.192,-0.09 -0.326,-0.147 l 0,0 c -0.428,-0.184 -1.106,-0.447 -2.02,-0.718 l 0,0 c -1.824,-0.539 -4.584,-1.104 -8.162,-1.104 l 0,0 c -6.166,0.007 -14.783,1.646 -25.416,8.211 l 0,0 c -0.034,0.57 -0.052,1.16 -0.052,1.766 l 0,0 z" id="path3473" inkscape:connector-curvature="0" style="fill:#8e6a30"/>
		<g id="g3475">
			<path d="m 699.316,97.15 c -108.373,-41.705 -148.577,38.701 -148.577,38.701 0,0 68.172,-54.187 174.215,-5.39 3.497,-6.344 -13.023,-28.456 -25.638,-33.311 z" id="path3477" inkscape:connector-curvature="0" style="fill:#8e6a30"/>
		</g>
		<g id="g3479">
			<path d="m 348.962,256.275 c -57.522,-5.504 -70.906,-55.749 -70.906,-55.749 0,0 -10.107,55.327 29.715,68.171 13.275,-4.587 41.191,-12.422 41.191,-12.422 z" id="path3481" inkscape:connector-curvature="0" style="fill:#8e6a30"/>
		</g>
		<path d="M 298.528,637.952 C 264.39,637.944 231.87,623.766 207.531,601.647 l 0,0 -0.038,-0.033 -0.07,-0.07 C 152.683,547.358 135.168,491.673 135.201,443.51 l 0,0 c 0.043,-62.662 29.226,-112.39 43.137,-131.563 l 0,0 c -0.243,-3.617 -0.352,-7.224 -0.355,-10.813 l 0,0 c 0.008,-43.165 16.176,-83.893 20.356,-98.567 l 0,0 C 213.572,135.623 235.457,92.373 260.601,65.693 l 0,0 c 25.134,-26.71 53.653,-36.556 80.934,-36.516 l 0,0 c 18.934,0 37.265,4.646 53.787,11.375 l 0,0 c 18.195,7.415 37.671,10.45 57.136,10.45 l 0,0 c 46.025,0.03 91.917,-17.08 119.296,-32.402 l 0,0 c 9.142,-5.114 19.554,-7.22 30.13,-7.22 l 0,0 c 28.397,0.115 58.271,14.75 72.285,30.656 l 0,0 c 4.563,5.269 7.587,10.818 7.717,16.608 l 0,0 c 2.865,2.526 7.889,6.049 12.417,10.745 l 0,0 c 5.174,5.355 9.923,12.722 9.911,22.464 l 0,0 c 0,2.329 -0.269,4.776 -0.842,7.333 l 0,0 c 23.046,13.713 32.836,35.491 32.768,57.177 l 0,0 c -0.018,18.549 -6.9,37.128 -18.21,51.583 l 0,0 c 16.997,18.736 27.462,41.625 27.521,61.018 l 0,0 c 0.005,7.57 -1.648,14.694 -5.351,20.642 l 0,0 c 0.474,0.287 0.997,0.605 1.567,0.951 l 0,0 c 2.622,1.598 6.211,3.814 10.426,6.665 l 0,0 c 8.432,5.699 19.361,13.941 30.214,24.979 l 0,0 c 21.693,22.031 43.145,55.47 43.135,101.757 l 0,0 c 0,3.031 -0.093,6.115 -0.276,9.199 l 0,0 c -3.181,72.754 -17.9,116.85 -37.542,143.055 l 0,0 c -19.629,26.242 -44.359,34.027 -65.627,33.964 l 0,0 c -24.313,-0.034 -44.349,-9.691 -49.781,-12.549 l 0,0 c -23.161,8.107 -38.275,11.475 -50.673,11.485 l 0,0 c -16.577,-0.014 -27.438,-6.101 -44.186,-13.621 l 0,0 c -5.579,3.694 -13.682,6.521 -23.359,8.684 l 0,0 c -10.729,2.366 -23.337,3.76 -36.116,3.76 l 0,0 c -17.323,-0.017 -34.935,-2.516 -48.616,-8.998 l 0,0 c -3.462,3.023 -8.365,5.401 -14.447,7.661 l 0,0 c -7.362,2.696 -16.469,5.025 -26.647,7.001 l 0,0 c -20.071,3.888 -44.3,6.363 -66.952,6.991 l 0,0 c -20.358,12.026 -41.804,17.36 -62.669,17.36 l 0,0 c -0.009,0.002 -0.017,0.002 -0.023,0.002 l 0,0 z m 0,-6.99 c 19.941,-0.005 40.362,-5.134 59.883,-16.835 l 0,0 0.79,-0.478 0.92,-0.022 c 33.768,-0.838 71.711,-6.027 92.292,-13.591 l 0,0 c 6.841,-2.463 11.686,-5.343 13.487,-7.587 l 0,0 1.813,-2.168 2.5,1.317 c 12.298,6.523 30.086,9.37 47.667,9.349 l 0,0 c 12.265,0.002 24.441,-1.353 34.611,-3.595 l 0,0 c 10.151,-2.212 18.36,-5.465 22.306,-8.611 l 0,0 1.653,-1.3 1.924,0.853 c 18.319,8.162 28.04,13.845 43.167,13.824 l 0,0 c 11.301,0.017 26.123,-3.207 49.805,-11.595 l 0,0 1.523,-0.543 1.398,0.813 c 0,0 0.274,0.164 0.894,0.491 l 0,0 c 0.619,0.333 1.552,0.813 2.759,1.394 l 0,0 c 2.415,1.163 5.93,2.722 10.277,4.279 l 0,0 c 8.692,3.124 20.699,6.23 33.798,6.227 l 0,0 c 19.671,-0.066 41.633,-6.75 60.034,-31.168 l 0,0 c 18.385,-24.45 33.03,-67.188 36.151,-139.219 l 0,0 c 0.181,-3 0.265,-5.946 0.265,-8.837 l 0,0 c 0.063,-82.418 -71.491,-121.825 -83.62,-129.387 l 0,0 c -0.884,-0.577 -1.36,-0.813 -2.149,-1.556 l 0,0 -2.229,-2.23 1.987,-2.445 c 4.036,-4.97 6.019,-11.581 6.022,-19.376 l 0,0 c 0.063,-17.534 -10.425,-40.467 -27.685,-58.447 l 0,0 -2.176,-2.275 2.03,-2.401 c 11.431,-13.49 18.535,-31.732 18.517,-49.478 l 0,0 c -0.07,-20.347 -8.996,-39.897 -31.522,-52.413 l 0,0 -2.467,-1.363 0.813,-2.699 c 0.883,-2.958 1.251,-5.617 1.251,-8.036 l 0,0 c -0.012,-7.386 -3.444,-12.888 -7.961,-17.622 l 0,0 c -4.517,-4.728 -9.898,-8.21 -13.392,-11.655 l 0,0 -1.171,-1.17 0.163,-1.647 c 0.026,-0.27 0.04,-0.554 0.04,-0.846 l 0,0 c 0.044,-3.243 -1.949,-7.666 -6.001,-12.283 l 0,0 C 664.877,42.015 658.97,37.262 651.92,33.052 l 0,0 C 637.819,24.607 619.152,18.354 601.88,18.376 l 0,0 c -9.664,0 -18.854,1.924 -26.718,6.326 l 0,0 C 546.851,40.501 500.208,57.968 452.454,57.997 l 0,0 c -20.186,-0.004 -40.576,-3.15 -59.772,-10.968 l 0,0 c -15.895,-6.477 -33.373,-10.865 -51.15,-10.86 l 0,0 c -25.633,0.036 -51.875,8.955 -75.849,34.317 l 0,0 c -23.948,25.381 -45.504,67.485 -60.549,133.727 l 0,0 -0.022,0.097 -0.025,0.088 c -4.391,15.262 -20.12,55.068 -20.112,96.735 l 0,0 c 0,3.856 0.133,7.718 0.425,11.58 l 0,0 0.1,1.297 -0.776,1.049 c -12.996,17.5 -42.572,66.908 -42.532,128.449 l 0,0 c 0.033,46.444 16.601,99.914 70.04,152.965 l 0,0 0,0 c 23.155,21.053 54.124,34.497 86.296,34.489 l 0,0 z" id="path3483" inkscape:connector-curvature="0" style="fill:#020202"/>
	</g>
	<g id="g3485">
		<path d="m 21.135,314.148 c 0,0 104.267,-42.561 118.862,-15.732 10.458,19.224 -9.984,52.103 -10.488,52.439 -15.732,10.489 -73.415,-22.724 -108.374,-36.707 z" id="path3487" inkscape:connector-curvature="0" style="fill:#8e8d8d"/>
		<path d="m 56.064,315.31 c 0,0 83.461,-37.492 85.068,-6.992 1.166,22.142 -13.479,29.961 -13.984,30.298 -15.732,10.488 -36.125,-9.323 -71.084,-23.306 z" id="path3489" inkscape:connector-curvature="0" style="fill:#c9c9c9"/>
		<path d="M 72.743,341.25 C 54.219,333.041 34.779,323.364 19.834,317.395 l 0,0 1.3,-3.248 1.322,3.237 -1.322,-3.237 -1.3,3.248 -8.03,-3.216 8.008,-3.271 c 0.229,-0.025 60.272,-24.758 96.908,-24.862 l 0,0 c 5.82,0.004 11.116,0.62 15.668,2.225 l 0,0 c 4.523,1.59 8.428,4.323 10.681,8.473 l 0,0 c 2.475,4.561 3.395,9.632 3.395,14.693 l 0,0 c -0.097,17.076 -10.064,34.876 -13.151,40.007 l 0,0 c -0.505,0.796 -0.647,1.075 -1.135,1.673 l 0,0 c -0.122,0.118 -0.144,0.221 -0.73,0.648 l 0,0 c -2.926,1.934 -6.447,2.593 -10.265,2.6 l 0,0 c -12.421,-0.086 -29.831,-6.93 -48.44,-15.115 l 0,0 z m 2.833,-6.392 c 18.258,8.145 35.71,14.597 45.606,14.512 l 0,0 c 2.643,0.006 4.613,-0.446 5.883,-1.122 l 0,0 c 0.051,-0.08 0.108,-0.17 0.169,-0.267 l 0,0 c 0.362,-0.581 0.881,-1.449 1.494,-2.547 l 0,0 c 1.232,-2.199 2.854,-5.314 4.458,-8.964 l 0,0 c 3.22,-7.288 6.308,-16.751 6.286,-25.034 l 0,0 c 0,-4.227 -0.777,-8.094 -2.547,-11.35 l 0,0 c -1.25,-2.278 -3.419,-3.983 -6.876,-5.227 l 0,0 c -3.427,-1.221 -8.022,-1.83 -13.33,-1.823 l 0,0 C 91.308,292.972 50.734,306.689 32.321,313.58 l 0,0 c -0.641,0.237 -1.256,0.467 -1.842,0.687 l 0,0 c 13.809,5.989 29.827,13.83 45.097,20.591 l 0,0 z" id="path3491" inkscape:connector-curvature="0"/>
	</g>
	<g id="g3493">
		<path d="m 9.987,513.8 c 0,0 86.171,-78.746 98.341,-65.896 12.171,12.847 19.586,39.399 13.325,50.071 -9.392,16.009 -74.72,12.578 -111.666,15.825 z" id="path3495" inkscape:connector-curvature="0" style="fill:#8e8d8d"/>
		<path d="m 36.254,502.926 c 0,0 64.739,-53.636 76.91,-40.786 12.171,12.848 7.428,14.964 1.166,25.637 -9.392,16.009 -41.132,11.902 -78.076,15.149 z" id="path3497" inkscape:connector-curvature="0" style="fill:#c9c9c9"/>
		<path d="m 7.628,511.216 c 0.08,-0.058 41.461,-37.922 71.366,-57.155 l 0,0 c 10.105,-6.379 18.491,-10.913 25.384,-11.072 l 0,0 c 2.255,-0.022 4.733,0.645 6.486,2.51 l 0,0 c 9.91,10.605 16.458,28.285 16.553,41.994 l 0,0 c -0.01,4.565 -0.735,8.766 -2.75,12.25 l 0,0 c -3.426,5.553 -10.073,8.262 -18.393,10.396 l 0,0 c -8.374,2.064 -18.715,3.237 -29.878,4.021 l 0,0 c -22.298,1.558 -47.891,1.518 -66.104,3.121 l 0,0 -10.292,0.908 7.628,-6.973 0,0 z m 4.716,5.163 -2.358,-2.579 2.358,2.579 0,0 z m 77.35,-60.642 c -6.574,3.731 -14.293,8.99 -22.214,14.854 l 0,0 c -15.851,11.736 -32.56,25.893 -43.36,35.323 l 0,0 c -1.526,1.334 -2.935,2.571 -4.207,3.691 l 0,0 c 27.56,-1.527 64.173,-1.146 84.685,-6.256 l 0,0 c 7.727,-1.825 12.769,-4.694 14.036,-7.14 l 0,0 c 1.104,-1.851 1.804,-4.937 1.793,-8.718 l 0,0 c 0.094,-11.442 -6.27,-28.502 -14.641,-37.188 l 0,0 c -0.08,-0.078 -0.283,-0.305 -1.408,-0.32 l 0,0 c -0.054,-0.004 -0.109,-0.004 -0.164,-0.004 l 0,0 c -2.615,0 -8.14,2.071 -14.52,5.758 l 0,0 z" id="path3499" inkscape:connector-curvature="0"/>
	</g>
	<g id="g3501">
		<path d="m 297.657,790.457 c 0,0 -0.854,-118.37 17.395,-118.627 18.247,-0.264 43.712,12.436 47.566,24.436 5.784,18.002 -41.944,64.394 -64.961,94.191 z" id="path3503" inkscape:connector-curvature="0" style="fill:#8e8d8d"/>
		<path d="m 306.607,762.79 c 0,0 0.396,-83.645 18.644,-83.901 18.247,-0.264 24.113,0.816 27.967,12.817 5.783,18.002 -23.594,41.287 -46.611,71.084 z" id="path3505" inkscape:connector-curvature="0" style="fill:#c9c9c9"/>
		<path d="m 294.161,790.483 c 0,-0.009 -0.007,-0.888 -0.007,-2.479 l 0,0 c 0.007,-11.207 0.289,-57.668 5.282,-88.823 l 0,0 c 1.702,-10.428 3.789,-19.084 7.06,-24.753 l 0,0 c 1.832,-3.146 4.491,-5.972 8.491,-6.094 l 0,0 c 0.188,-0.004 0.396,-0.007 0.624,-0.007 l 0,0 c 9.894,0.019 21.049,3.316 30.496,8.151 l 0,0 c 9.396,4.929 17.231,11.085 19.842,18.719 l 0,0 c 0.45,1.411 0.646,2.881 0.646,4.373 l 0,0 c -0.062,6.232 -3.134,12.933 -7.685,20.451 l 0,0 c -4.582,7.485 -10.804,15.679 -17.677,24.106 l 0,0 c -13.738,16.83 -30.105,34.6 -40.808,48.464 l 0,0 -6.185,8.009 -0.079,-10.117 0,0 z m 3.497,-0.026 3.493,-0.03 -3.493,0.03 0,0 z m 14.871,-112.499 c -1.34,2.269 -2.695,5.986 -3.848,10.592 l 0,0 c -2.334,9.236 -3.984,22.051 -5.107,35.396 l 0,0 c -1.79,21.252 -2.269,43.907 -2.391,56.519 l 0,0 c 16.733,-20.293 40.361,-45.404 51.763,-64.093 l 0,0 c 4.328,-6.994 6.721,-13.106 6.659,-16.802 l 0,0 c 0,-0.883 -0.115,-1.622 -0.315,-2.238 l 0,0 c -1.207,-4.247 -7.772,-10.315 -16.378,-14.636 l 0,0 c -8.553,-4.417 -18.994,-7.402 -27.301,-7.38 l 0,0 c -0.145,0 -0.31,0.006 -0.51,0.006 l 0,0 c -0.011,-0.006 -0.026,-0.008 -0.046,-0.008 l 0,0 c -0.257,0 -1.226,0.431 -2.526,2.644 l 0,0 z" id="path3507" inkscape:connector-curvature="0"/>
	</g>
	<g id="g3509">
		<path d="m 506.876,782.213 c 0,0 -46.151,-81.765 -31.063,-88.704 15.085,-6.945 41.15,-7.579 48.965,-0.685 11.723,10.337 -10.186,60.195 -17.902,89.389 z" id="path3511" inkscape:connector-curvature="0" style="fill:#8e8d8d"/>
		<path d="m 505.875,756.963 c 0,0 -36.064,-55.986 -20.977,-62.928 15.086,-6.945 22.485,-8.058 30.3,-1.164 11.721,10.339 -1.608,34.898 -9.323,64.092 z" id="path3513" inkscape:connector-curvature="0" style="fill:#c9c9c9"/>
		<path d="m 503.832,783.928 c -0.041,-0.085 -19.246,-34.054 -29.002,-60.493 l 0,0 c -3.244,-8.865 -5.511,-16.785 -5.543,-23.008 l 0,0 c 0.004,-2.048 0.242,-3.964 0.991,-5.761 l 0,0 c 0.721,-1.783 2.145,-3.477 4.071,-4.334 l 0,0 c 8.582,-3.93 19.814,-5.849 30.001,-5.867 l 0,0 c 9.275,0.095 17.562,1.375 22.738,5.735 l 0,0 c 3.602,3.278 4.536,8.074 4.564,13.355 l 0,0 c -0.038,10.395 -3.938,24.318 -8.502,38.811 l 0,0 c -4.58,14.45 -9.896,29.345 -12.896,40.737 l 0,0 -2.196,8.326 -4.226,-7.501 0,0 z m 3.043,-1.716 3.045,-1.72 -3.045,1.72 0,0 z m -29.61,-85.523 c -0.188,0.104 -0.28,0.124 -0.544,0.686 l 0,0 c -0.234,0.546 -0.449,1.604 -0.444,3.052 l 0,0 c -0.082,6.787 4.542,20.349 10.494,33.876 l 0,0 c 5.933,13.611 13.094,27.547 17.86,36.494 l 0,0 c 0.429,0.802 0.836,1.563 1.222,2.281 l 0,0 c 3.085,-10.153 7.102,-21.668 10.632,-32.822 l 0,0 c 4.535,-14.25 8.212,-28.03 8.175,-36.7 l 0,0 c 0.031,-4.48 -1.017,-7.174 -2.194,-8.111 l 0,0 c -2.271,-2.215 -9.707,-4.087 -18.115,-3.985 l 0,0 c -0.044,0 -0.089,0 -0.133,0 l 0,0 c -9.236,-0.001 -19.759,1.89 -26.953,5.229 l 0,0 z" id="path3515" inkscape:connector-curvature="0"/>
	</g>
	<g id="g3517">
		<path d="m 251.836,188.291 c 0,0 -13.984,-72.249 50.691,-83.902 0.001,0 -39.037,19.81 -50.691,83.902 z" id="path3519" inkscape:connector-curvature="0" style="fill:#020202"/>
	</g>
	<g id="g3521">
		<path d="m 361.377,108.467 c 0,0 56.717,-22.69 146.248,26.22 0,0 -60.016,-85.65 -146.248,-26.22 z" id="path3523" inkscape:connector-curvature="0" style="fill:#8e6a30"/>
	</g>
	<g id="g3525">
		<path d="m 373.029,104.389 c 0,0 60.597,-11.653 123.523,22.723 0,0 -59.43,-58.848 -123.523,-22.723 z" id="path3527" inkscape:connector-curvature="0" style="fill:#020202"/>
	</g>
	<g id="g3529">
		<path d="M 699.316,100.892 C 599.1,69.429 555.983,130.608 555.983,130.608 c 0,0 65.257,-60.013 168.971,-5.244 3.497,-4.661 -13.207,-20.57 -25.638,-24.472 z" id="path3531" inkscape:connector-curvature="0" style="fill:#020202"/>
	</g>
	<g id="g3533">
		<path d="m 671.787,64.622 c -36.271,-28.841 -71.23,5.681 -71.23,5.681 0,0 24.471,-12.454 71.23,-5.681" id="path3535" inkscape:connector-curvature="0" style="fill:#8e6a30"/>
	</g>
	<g id="g3537">
		<path d="m 687.663,68.264 c -32.628,-26.802 -75.745,-4.661 -75.745,-4.661 0,0 38.454,-10.488 75.745,4.661" id="path3539" inkscape:connector-curvature="0" style="fill:#020202"/>
	</g>
	<g id="g3541">
		<path d="m 367.203,33.305 c 0,0 31.464,16.896 48.943,32.628 17.479,15.731 50.69,10.488 50.69,10.488 0,0 -25.638,1.166 -41.951,-13.401 -16.314,-14.567 -46.03,-26.802 -57.682,-29.715 z" id="path3543" inkscape:connector-curvature="0" style="fill:#020202"/>
	</g>
	<g id="g3545">
		<path d="m 714.174,171.248 c 0,0 -36.925,-39.111 -81.281,-5.098 -39.67,30.421 -62.343,18.063 -93.807,4.079 -22.723,26.22 -101.965,32.045 -161.396,-6.41 -59.431,-38.456 -80.407,8.74 -80.407,8.74 0,0 26.22,-30.298 53.022,-16.897 26.802,13.4 61.762,43.116 110.123,43.116 48.361,0 61.179,-7.575 80.989,-17.479 28.55,9.322 51.855,22.141 80.988,4.662 29.135,-17.48 49.237,-36.854 91.769,-14.713 z" id="path3547" inkscape:connector-curvature="0" style="fill:#020202"/>
	</g>
	<g id="g3549">
		<path d="m 530.93,183.63 c 11.653,-27.967 -4.662,-46.03 -4.662,-46.03 0,0 20.392,5.827 19.809,43.117 -5.243,-2.331 -7.573,-2.914 -7.573,-2.914 l -7.574,5.827 z" id="path3551" inkscape:connector-curvature="0" style="fill:#020202"/>
	</g>
	<g id="g3553">
		<path d="M 735.15,290.547 C 599.1,128.86 442.366,197.031 389.926,263.454 c -85.65,-20.976 -125.854,43.699 -125.854,43.699 0,0 -129.35,76.911 -68.171,274.431 19.228,52.439 78.659,96.138 178.293,17.479 10.488,12.235 41.952,24.473 96.139,-15.731 29.715,19.228 83.902,24.472 108.373,0 33.211,8.74 93.809,10.487 93.809,10.487 0,0 103.712,61.179 138.672,-83.902 34.959,-145.082 -31.464,-188.781 -61.179,-209.755 -10.488,-1.749 -14.858,-9.615 -14.858,-9.615 z" id="path3555" inkscape:connector-curvature="0" style="fill:#8e6a30"/>
		<path d="M 729.616,297.831 C 585.699,155.08 442.366,207.519 389.927,273.942 c -85.65,-20.976 -125.854,33.211 -125.854,33.211 0,0 -129.35,76.911 -68.171,274.431 19.228,52.439 78.659,96.138 178.293,17.479 10.488,12.235 41.952,24.473 96.139,-15.731 29.715,19.228 83.902,24.472 108.373,0 40.204,22.141 94.975,-2.33 94.975,-2.33 0,0 103.31,34.616 127.018,-69.919 25.638,-113.036 -9.322,-158.483 -50.107,-194.607 -10.489,-1.748 -20.977,-18.645 -20.977,-18.645 z" id="path3557" inkscape:connector-curvature="0" style="fill:#b68b3a"/>
		<path d="m 192.619,582.785 -0.03,-0.076 -0.029,-0.092 C 180.766,544.534 175.973,510.814 175.973,481.178 l 0,0 c 0.021,-119.129 77.365,-171.403 85.605,-176.598 l 0,0 c 1.894,-2.831 9.458,-13.459 23.081,-24.125 l 0,0 c 15.735,-12.326 39.703,-24.692 72.052,-24.686 l 0,0 c 9.858,0 20.484,1.146 31.873,3.771 l 0,0 c 29.703,-36.349 88.932,-72.197 159.056,-72.252 l 0,0 c 59.922,-0.036 127.536,26.488 190.185,101.006 l 0,0 -2.676,2.254 -3.058,1.698 3.058,-1.698 2.676,-2.254 0.215,0.259 0.166,0.295 c 0.003,0 -0.003,0 0.096,0.155 l 0,0 c 0.097,0.152 0.26,0.396 0.491,0.702 l 0,0 c 0.458,0.617 1.193,1.488 2.201,2.408 l 0,0 c 2.034,1.839 5.119,3.852 9.586,4.598 l 0,0 0.791,0.132 0.653,0.461 c 11.854,8.375 30.096,20.698 45.291,41.971 l 0,0 c 15.213,21.27 27.295,51.517 27.279,95.277 l 0,0 c 0,21.821 -2.981,47.006 -10.013,76.182 l 0,0 c -9.589,39.806 -24.405,64.7 -41.258,79.663 l 0,0 c -16.843,14.968 -35.613,19.745 -52.2,19.723 l 0,0 c -25.033,-0.041 -45.334,-10.514 -49.574,-12.839 l 0,0 c -7.357,-0.255 -59.981,-2.202 -91.836,-10.086 l 0,0 c -12.5,11.43 -30.781,16.056 -49.62,16.074 l 0,0 c -21.194,-0.022 -43.297,-5.868 -59.602,-15.72 l 0,0 c -27.508,19.98 -49.498,26.82 -66.219,26.828 l 0,0 c -14.048,0.002 -24.23,-4.868 -30.407,-10.622 l 0,0 c -38.486,29.796 -71.322,41.729 -98.557,41.739 l 0,0 c -43.074,0.013 -70.788,-30.009 -82.689,-62.709 l 0,0 z m 82.69,55.72 c 25.667,0.012 57.923,-11.563 96.719,-42.187 l 0,0 2.634,-2.082 2.185,2.552 c 4.365,5.082 13.306,10.596 27.426,10.596 l 0,0 c 15.107,0.01 36.358,-6.371 63.976,-26.861 l 0,0 1.946,-1.445 2.034,1.319 c 15.003,9.737 37.126,15.904 57.864,15.878 l 0,0 c 18.449,0.021 35.63,-4.852 46.14,-15.416 l 0,0 1.419,-1.423 1.943,0.515 c 16.181,4.268 39.55,6.901 58.746,8.415 l 0,0 c 19.209,1.525 34.238,1.957 34.274,1.957 l 0,0 0.898,0.025 0.774,0.459 c 0.003,0 0.27,0.159 0.875,0.486 l 0,0 c 0.607,0.33 1.519,0.81 2.696,1.385 l 0,0 c 2.36,1.158 5.805,2.708 10.066,4.259 l 0,0 c 8.522,3.105 20.304,6.191 33.197,6.188 l 0,0 c 15.311,-0.018 32.091,-4.254 47.56,-17.958 l 0,0 c 15.463,-13.718 29.729,-37.178 39.105,-76.069 l 0,0 c 6.92,-28.725 9.815,-53.362 9.809,-74.545 l 0,0 c -0.016,-42.494 -11.59,-71.05 -25.973,-91.215 l 0,0 C 777.46,323.519 760.509,311.836 748.605,303.455 l 0,0 c -10.382,-2.092 -15.28,-9.2 -16.313,-10.87 l 0,0 C 670.684,219.528 605.411,194.314 547.638,194.277 l 0,0 c -68.73,-0.055 -127.227,36.119 -154.97,71.339 l 0,0 -1.396,1.765 -2.183,-0.535 c -11.69,-2.861 -22.474,-4.084 -32.38,-4.084 l 0,0 c -53.315,-0.041 -82.108,35.594 -88.396,44.364 l 0,0 c -0.886,1.245 -1.274,1.869 -1.274,1.873 l 0,0 -0.45,0.719 -0.732,0.436 c 0,0.004 -0.262,0.16 -0.846,0.533 l 0,0 c -0.583,0.376 -1.458,0.952 -2.573,1.731 l 0,0 c -2.238,1.565 -5.461,3.95 -9.342,7.204 l 0,0 c -7.763,6.506 -18.15,16.478 -28.538,30.25 l 0,0 c -20.775,27.565 -41.583,70.253 -41.598,131.304 l 0,0 c 0,28.849 4.658,61.817 16.24,99.247 l 0,0 c 11.439,30.921 36.657,58.071 76.109,58.082 l 0,0 z" id="path3559" inkscape:connector-curvature="0" style="fill:#020202"/>
	</g>
	<g id="g3561">
		<path d="M 335.739,259.958 C 297.866,256.462 283.3,223.25 283.3,223.25 c 0,0 4.661,34.96 30.881,43.117 8.739,-2.913 21.558,-6.409 21.558,-6.409 z" id="path3563" inkscape:connector-curvature="0" style="fill:#020202"/>
	</g>
	<g id="g3565">
		<path d="m 444.114,190.039 c -30.299,-2.331 -36.708,-33.211 -36.708,-33.211 0,0 16.897,29.715 53.605,36.707 -8.741,-1.748 -16.897,-3.496 -16.897,-3.496 z" id="path3567" inkscape:connector-curvature="0" style="fill:#020202"/>
	</g>
	<path d="m 371.573,159.886 c 0,0 -16.169,-8.74 -41.078,6.992 -2.622,19.665 16.605,56.372 44.573,57.683 23.588,1.105 49.38,-10.487 47.631,-39.329 -17.041,-6.118 -37.143,-14.421 -51.126,-25.346 z" id="path3569" inkscape:connector-curvature="0" style="fill:#e1dada"/>
	<path d="m 374.778,163.237 c 0,0 -22.724,-2.914 -27.967,11.653 -2.623,19.665 5.244,45.302 33.211,46.612 23.587,1.105 44.427,-7.428 42.678,-36.27 -17.042,-6.118 -33.939,-11.07 -47.922,-21.995 z" id="path3571" inkscape:connector-curvature="0" style="fill:#fcfafa"/>
	<path d="m 374.904,228.051 c -14.603,-0.718 -26.604,-9.934 -34.907,-21.248 l 0,0 c -8.314,-11.386 -13.196,-24.991 -13.24,-36.143 l 0,0 c 0,-1.459 0.09,-2.877 0.273,-4.246 l 0,0 0.216,-1.621 1.383,-0.873 c 12.297,-7.781 22.853,-9.962 30.589,-9.952 l 0,0 c 8.601,0 13.648,2.641 14.015,2.843 l 0,0 -1.66,3.075 -2.151,2.752 2.151,-2.752 1.66,-3.075 0.258,0.137 0.233,0.183 c 13.384,10.484 33.247,18.754 50.155,24.809 l 0,0 2.178,0.782 0.133,2.311 c 0.058,0.992 0.086,1.973 0.086,2.938 l 0,0 c 0.058,13.875 -6.356,24.345 -15.575,30.797 l 0,0 c -9.211,6.5 -21.028,9.349 -32.567,9.359 l 0,0 c -1.078,0 -2.154,-0.025 -3.23,-0.076 l 0,0 z m -41.155,-57.39 c -0.041,9.083 4.354,21.808 11.881,32.004 l 0,0 c 7.538,10.271 17.942,17.888 29.6,18.401 l 0,0 c 0.963,0.047 1.929,0.068 2.903,0.068 l 0,0 c 10.39,0.011 20.899,-2.65 28.527,-8.075 l 0,0 c 7.619,-5.465 12.566,-13.329 12.624,-25.089 l 0,0 c 0,-0.086 0,-0.173 -10e-4,-0.26 l 0,0 c -16.561,-6.048 -35.631,-14.077 -49.558,-24.836 l 0,0 c -0.084,-0.038 -0.192,-0.086 -0.326,-0.142 l 0,0 c -0.428,-0.179 -1.106,-0.434 -2.02,-0.698 l 0,0 c -1.824,-0.524 -4.584,-1.073 -8.162,-1.073 l 0,0 c -6.166,0.007 -14.783,1.601 -25.416,7.983 l 0,0 c -0.034,0.556 -0.052,1.129 -0.052,1.717 l 0,0 z" id="path3573" inkscape:connector-curvature="0"/>
	<path d="m 698.443,163.819 c 0,0 1.458,32.046 -22.286,41.951 -19.643,8.194 -50.255,7.866 -67.734,-19.228 5.681,-2.185 21.85,-11.361 24.908,-13.547 3.059,-2.184 33.067,-27.238 65.112,-9.176 z" id="path3575" inkscape:connector-curvature="0" style="fill:#e1dada"/>
	<path d="m 689.413,165.567 c 0,0 10.488,30.298 -13.256,40.203 -19.643,8.194 -37.435,4.953 -54.915,-22.141 5.682,-2.185 9.03,-8.448 12.089,-10.634 3.059,-2.184 24.036,-25.489 56.082,-7.428 z" id="path3577" inkscape:connector-curvature="0" style="fill:#fcfafa"/>
	<path d="m 605.481,188.436 -2.328,-3.61 4.013,-1.546 c 4.984,-1.864 21.639,-11.293 24.133,-13.127 l 0,0 c 0.919,-0.652 6.086,-4.867 13.57,-8.712 l 0,0 c 7.54,-3.882 17.681,-7.617 29.252,-7.624 l 0,0 c 8.199,-0.008 17.107,1.915 26.036,6.958 l 0,0 -1.714,3.047 1.714,-3.047 1.698,0.956 0.079,1.948 c 0.002,0.044 0.017,0.473 0.02,1.22 l 0,0 c -0.01,3.072 -0.292,11.411 -3.419,20.403 l 0,0 c -3.098,8.947 -9.269,18.79 -21.033,23.697 l 0,0 c -7.3,3.039 -15.934,4.955 -24.957,4.958 l 0,0 c -0.066,0 -0.132,0.001 -0.199,0.001 l 0,0 c -16.673,-0.002 -34.897,-6.895 -46.865,-25.522 l 0,0 z m 47.063,18.525 c 8.023,0.004 15.819,-1.729 22.265,-4.419 l 0,0 c 9.378,-3.918 14.357,-11.678 17.122,-19.543 l 0,0 c 2.443,-6.978 2.944,-13.847 3.019,-17.09 l 0,0 c -7.241,-3.71 -14.237,-5.095 -20.829,-5.102 l 0,0 c -10.029,-0.004 -19.155,3.292 -26.047,6.848 l 0,0 c -6.946,3.593 -11.379,7.221 -12.712,8.184 l 0,0 c -2.997,2.097 -14.248,8.565 -21.658,12.158 l 0,0 c 10.558,13.961 24.94,18.914 38.84,18.964 l 0,0 z" id="path3579" inkscape:connector-curvature="0"/>
	<g id="g3581">
		<path d="M 690.577,582.458" id="path3583" inkscape:connector-curvature="0"/>
	</g>
	<g id="g3585">
		<path d="m 379.438,169.063 c 0,0 -26.656,9.177 -10.924,34.523 14.42,20.247 55.207,9.76 41.95,-22.724 -16.168,-6.555 -31.026,-11.799 -31.026,-11.799 z" id="path3587" inkscape:connector-curvature="0" style="fill:#7f4301"/>
		<path d="m 367.027,204.506 c -3.713,-5.978 -5.23,-11.24 -5.23,-15.81 l 0,0 c -0.005,-7.787 4.404,-13.2 8.612,-16.499 l 0,0 c 4.225,-3.332 8.35,-4.745 8.461,-4.789 l 0,0 0.575,-0.197 0.575,0.201 c 0.014,0.007 14.891,5.255 31.102,11.828 l 0,0 0.683,0.277 0.28,0.686 c 1.877,4.605 2.739,8.853 2.739,12.704 l 0,0 c 0.018,7.305 -3.153,13.135 -7.891,16.965 l 0,0 c -4.735,3.848 -10.966,5.794 -17.282,5.798 l 0,0 c -8.449,0.003 -17.179,-3.522 -22.624,-11.164 l 0,0 z m 10.701,-32.8 c -1.408,0.693 -3.292,1.763 -5.155,3.235 l 0,0 c -3.74,2.972 -7.276,7.376 -7.281,13.756 l 0,0 c 0,3.784 1.246,8.394 4.646,13.875 l 0,0 c 4.606,6.479 12.198,9.603 19.711,9.603 l 0,0 c 11.276,-0.082 21.675,-6.813 21.675,-19.266 l 0,0 c 0,-3.149 -0.665,-6.722 -2.208,-10.705 l 0,0 c -13.958,-5.64 -26.769,-10.248 -29.656,-11.276 l 0,0 c -0.395,0.157 -0.989,0.41 -1.732,0.778 l 0,0 z m 1.127,-0.995 0.582,-1.648 -0.582,1.648 0,0 z" id="path3589" inkscape:connector-curvature="0"/>
	</g>
	<g id="g3591">
		<circle cx="392.76599" cy="192.879" r="7.21" id="circle3593" sodipodi:cx="392.76599" sodipodi:cy="192.879" sodipodi:rx="7.21" sodipodi:ry="7.21"/>
		<path d="m 383.806,192.878 c 0.005,-4.946 4.01,-8.956 8.96,-8.959 l 0,0 c 4.949,0.003 8.956,4.013 8.959,8.959 l 0,0 c -0.004,4.949 -4.011,8.959 -8.959,8.959 l 0,0 c -4.95,0 -8.955,-4.01 -8.96,-8.959 l 0,0 z m 3.498,0 c 0.003,3.016 2.446,5.459 5.462,5.462 l 0,0 c 3.016,-0.003 5.456,-2.446 5.462,-5.462 l 0,0 c -0.006,-3.017 -2.446,-5.456 -5.462,-5.463 l 0,0 c -3.016,0.007 -5.459,2.446 -5.462,5.463 l 0,0 z" id="path3595" inkscape:connector-curvature="0"/>
	</g>
	<g id="g3597">
		<path d="m 633.767,174.307 c 0,0 4.983,34.453 34.522,22.724 29.717,-11.799 10.659,-38.028 2.186,-37.582 -8.303,0.437 -24.471,2.039 -36.708,14.858 z" id="path3599" inkscape:connector-curvature="0" style="fill:#7f4301"/>
		<path d="m 636.479,187.706 c -3.505,-6.599 -4.421,-13.038 -4.443,-13.148 l -0.125,-0.84 0.593,-0.619 c 12.75,-13.34 29.471,-14.949 37.814,-15.392 0.151,-0.011 0.269,-0.014 0.367,-0.014 3.551,0.095 7.077,2.718 10.099,6.442 4.402,5.426 5.63,12.426 3.984,19.138 -1.91,7.792 -8.643,12.574 -15.835,15.385 -12.535,4.957 -26.014,1.31 -32.454,-10.952 z m -0.154,-9.932 c 0.62,2.271 1.647,5.3 3.237,8.292 4.018,7.556 11.973,11.927 20.438,11.168 7.971,-0.715 18.061,-5.688 21.042,-13.569 1.861,-4.926 0.289,-13.23 -2.999,-17.36 -2.531,-3.289 -5.826,-5.213 -7.358,-5.117 -0.045,0 -0.055,0 -0.121,0.007 -8.06,0.417 -23.273,1.967 -34.921,13.687 0.128,0.648 0.34,1.646 0.682,2.892 z" id="path3601" inkscape:connector-curvature="0"/>
	</g>
	<g id="g3603">
		<circle cx="661.51703" cy="177.366" r="7.21" id="circle3605" sodipodi:cx="661.51703" sodipodi:cy="177.366" sodipodi:rx="7.21" sodipodi:ry="7.21"/>
		<path d="m 652.557,177.367 c 0,-4.952 4.013,-8.96 8.96,-8.96 l 0,0 c 4.946,0 8.957,4.009 8.957,8.96 l 0,0 c 0,4.947 -4.011,8.955 -8.957,8.955 l 0,0 c -4.947,0 -8.96,-4.008 -8.96,-8.955 l 0,0 z m 3.497,0 c 0.004,3.014 2.445,5.455 5.463,5.459 l 0,0 c 3.015,-0.004 5.455,-2.445 5.459,-5.459 l 0,0 c -0.004,-3.019 -2.444,-5.459 -5.459,-5.463 l 0,0 c -3.017,0.004 -5.459,2.445 -5.463,5.463 l 0,0 z" id="path3607" inkscape:connector-curvature="0"/>
	</g>
	<g id="g3609">
		<circle cx="388.17899" cy="184.795" r="3.7869999" id="circle3611" sodipodi:cx="388.17899" sodipodi:cy="184.795" sodipodi:rx="3.7869999" sodipodi:ry="3.7869999" style="fill:#ffffff"/>
	</g>
	<g id="g3613">
		<circle cx="657.36603" cy="170.811" r="3.7880001" id="circle3615" sodipodi:cx="657.36603" sodipodi:cy="170.811" sodipodi:rx="3.7880001" sodipodi:ry="3.7880001" style="fill:#ffffff"/>
	</g>
	<g id="g3617">
		<path d="m 523.126,335.854 c 0,0 -40.675,-3.914 -29.447,-47.073 10.44,-40.121 135.549,-42.408 131.623,3.407 -3.924,45.814 -26.478,49.084 -28.237,22.924 -1.763,-26.161 -7.446,-6.507 -7.901,12.794 -0.413,17.563 -30.579,28.651 -41.851,11.577 -13.654,-20.689 -10.923,-49.487 -17.345,-32.12 -4.887,13.218 3.857,31.276 -6.842,28.491 z" id="path3619" inkscape:connector-curvature="0" style="fill:#3f2602"/>
		<path d="m 513.158,320.846 c 0,0 -6.118,-3.787 -7.282,-16.897 -3.666,-41.293 110.122,-40.585 110.122,-10.488 0,24.763 -9.906,28.259 -11.071,12.527 -1.937,-26.147 -23.888,-13.4 -24.18,11.362 -0.206,17.566 -28.948,21.762 -31.464,1.457 -3.788,-30.589 -21.268,-32.92 -27.676,-19.227 -5.974,12.764 -1.165,22.723 -8.449,21.266 z" id="path3621" inkscape:connector-curvature="0" style="fill:#5b3902"/>
		<path d="m 544.394,341.407 c -7.109,-10.797 -9.911,-23.289 -11.74,-30.918 l 0,0 c -0.613,2.432 -0.824,5.13 -0.823,7.861 l 0,0 c -0.004,3.928 0.424,7.842 0.431,11.285 l 0,0 c -0.022,2.153 -0.106,4.156 -1.054,6.223 l 0,0 c -0.841,2.146 -3.604,3.942 -6.121,3.774 l 0,0 c -0.864,0 -1.717,-0.123 -2.592,-0.335 l 0,0 c -1.569,-0.193 -9.053,-1.244 -16.813,-5.677 l 0,0 c -8.579,-4.805 -17.542,-14.487 -17.459,-30.806 l 0,0 c 0,-4.478 0.645,-9.438 2.072,-14.914 l 0,0 c 3.127,-11.689 13.896,-19.759 27.363,-25.107 l 0,0 c 13.55,-5.346 30.25,-8.027 46.591,-8.034 l 0,0 c 16.046,0.015 31.725,2.576 43.784,8.135 l 0,0 c 11.971,5.447 20.864,14.575 20.851,27.203 l 0,0 c 0,0.791 -0.035,1.578 -0.101,2.387 l 0,0 c -1.197,13.908 -4.046,24.149 -7.759,31.197 l 0,0 c -3.703,6.932 -8.399,11.233 -14.12,11.356 l 0,0 c -3.923,0.022 -7.349,-2.401 -9.47,-5.852 l 0,0 c -2.113,-3.371 -3.387,-7.828 -3.82,-13.324 l 0,0 c -0.506,3.707 -0.861,7.941 -0.955,12.125 l 0,0 c -0.18,7.051 -4.191,12.982 -9.541,17.022 l 0,0 c -5.38,4.06 -12.231,6.461 -19.092,6.475 l 0,0 c -0.052,0 -0.104,10e-4 -0.156,10e-4 l 0,0 c -7.311,0.001 -14.86,-3.033 -19.476,-10.077 l 0,0 z m -8.353,-41.657 c 0.591,0.58 0.896,1.112 1.165,1.623 l 0,0 c 0.511,1.02 0.831,2.05 1.186,3.274 l 0,0 c 0.677,2.424 1.347,5.553 2.262,9.161 l 0,0 c 1.811,7.197 4.58,16.191 9.574,23.749 l 0,0 c 3.243,4.867 8.163,6.894 13.799,6.938 l 0,0 c 5.185,0.015 10.764,-1.924 14.873,-5.054 l 0,0 c 4.141,-3.152 6.676,-7.259 6.766,-11.616 l 0,0 c 0.211,-8.58 1.357,-17.037 2.894,-22.31 l 0,0 c 0.551,-1.79 1.028,-3.185 2.011,-4.547 l 0,0 c 0.559,-0.703 1.538,-1.884 3.635,-1.968 l 0,0 c 1.057,-0.011 2.039,0.453 2.63,0.947 l 0,0 c 0.611,0.504 0.964,1.014 1.249,1.498 l 0,0 c 0.554,0.973 0.86,1.941 1.154,3.142 l 0,0 c 0.577,2.374 0.999,5.65 1.313,10.292 l 0,0 c 0.322,4.919 1.475,8.504 2.799,10.577 l 0,0 c 1.384,2.106 2.521,2.572 3.556,2.59 l 0,0 c 1.479,0.124 4.82,-1.68 7.936,-7.637 l 0,0 c 3.104,-5.843 5.851,-15.281 6.978,-28.5 l 0,0 c 0.049,-0.629 0.077,-1.231 0.073,-1.811 l 0,0 c -0.009,-9 -6.021,-15.791 -16.79,-20.858 l 0,0 c -10.679,-4.956 -25.57,-7.503 -40.852,-7.488 l 0,0 c -15.566,-0.008 -31.562,2.607 -44.021,7.546 l 0,0 c -12.545,4.929 -21.107,12.122 -23.166,20.367 l 0,0 c -1.3,4.98 -1.851,9.342 -1.851,13.15 l 0,0 c 0.068,12.021 5.249,18.662 11.306,23.052 l 0,0 c 6.063,4.329 13.12,5.917 15.828,6.348 l 0,0 c 0.769,0.127 1.113,0.159 1.119,0.159 l 0,0 -0.337,3.48 -0.88,3.381 0.88,-3.381 0.337,-3.48 0.268,0.026 0.275,0.069 c 0.438,0.118 0.77,0.162 0.978,0.169 l 0,0 c 0.139,-0.46 0.308,-1.561 0.285,-3.003 l 0,0 c 0.007,-2.839 -0.426,-6.897 -0.43,-11.285 l 0,0 c 0.004,-3.898 0.346,-8.121 1.849,-12.198 l 0,0 c 1.172,-2.987 1.754,-4.689 3.392,-6.376 l 0,0 c 0.574,-0.542 1.581,-1.24 3.017,-1.25 l 0,0 c 0.01,-0.001 0.02,-0.001 0.032,-0.001 l 0,0 c 1.289,0.001 2.358,0.665 2.908,1.225 l 0,0 z" id="path3623" inkscape:connector-curvature="0"/>
	</g>
	<g id="g3625">
		<path d="m 540.253,463.304 c 0,0 47.193,-47.484 90.893,0 0,0 -36.504,-18.352 -90.893,0 z" id="path3627" inkscape:connector-curvature="0" style="fill:#8e6a30"/>
	</g>
	<g id="g3629">
		<path d="m 551.321,457.478 c 0,0 34.96,-24.471 71.085,0 0,0 -28.55,-10.488 -71.085,0 z" id="path3631" inkscape:connector-curvature="0" style="fill:#020202"/>
	</g>
	<g id="g3633">
		<path d="m 462.466,415.527 c 0,0 -19.227,-4.37 -67.296,-48.069 -48.07,-43.699 -97.013,-50.691 -133.72,14.858 -36.708,65.549 -48.07,163.434 7.866,178.292 55.935,14.858 97.887,-92.642 193.15,-145.081 z" id="path3635" inkscape:connector-curvature="0" style="fill:#9b5c5c"/>
		<path d="m 462.466,415.527 c 0,0 -34.722,0.153 -84.193,-41.952 -41.077,-34.959 -73.342,-48.506 -110.049,17.043 -36.707,65.549 -52.221,138.526 3.715,153.384 55.935,14.858 95.264,-76.036 190.527,-128.475 z" id="path3637" inkscape:connector-curvature="0" style="fill:#c47474"/>
		<path d="m 268.416,563.986 c -14.685,-3.867 -25.268,-13.346 -31.833,-25.984 l 0,0 c -6.603,-12.642 -9.445,-28.396 -9.452,-45.595 l 0,0 c 0.025,-35.718 12.298,-77.882 31.267,-111.802 l 0,0 c 19.261,-34.559 42.801,-50.275 68.137,-50.24 l 0,0 c 23.476,0.044 47.481,13.163 70.985,34.505 l 0,0 c 45.577,41.446 64.825,47.021 65.718,47.245 l 0,0 0.003,-0.001 8.975,2.035 -8.064,4.438 C 398.142,454.853 357.878,518.319 319.5,548.759 l 0,0 c -12.829,10.119 -25.747,16.719 -39.658,16.737 l 0,0 c -3.765,10e-4 -7.578,-0.489 -11.426,-1.51 l 0,0 z m 58.118,-226.628 c -22.193,0.04 -43.263,13.296 -62.036,46.663 l 0,0 c -18.423,32.856 -30.401,74.256 -30.376,108.386 l 0,0 c -0.007,16.43 2.773,31.133 8.656,42.356 l 0,0 c 5.917,11.231 14.678,19.038 27.434,22.463 l 0,0 c 3.277,0.869 6.467,1.275 9.629,1.275 l 0,0 c 11.574,0.015 23.072,-5.557 35.326,-15.229 l 0,0 c 12.228,-9.642 25.027,-23.243 39.079,-38.47 l 0,0 c 26.795,-29.014 58.171,-63.955 100.218,-88.743 l 0,0 c -9.562,-4.628 -29.089,-16.434 -61.647,-46.018 l 0,0 c -22.784,-20.74 -45.471,-32.686 -66.17,-32.684 l 0,0 c -0.036,10e-4 -0.076,10e-4 -0.113,10e-4 l 0,0 z m 135.931,78.169 0.546,-2.404 -0.546,2.404 0,0 z" id="path3639" inkscape:connector-curvature="0"/>
	</g>
	<g id="g3641">
		<path d="m 689.848,586.316 c 2.233,0.409 -2.48,-5.896 -0.437,-5.896 13.665,-0.019 23.956,-7.004 31.463,-20.976 18.327,-34.106 13.471,-84.961 -12.146,-114.154 -7.977,-9.09 -18.008,-17.234 -28.057,-23.936 -18.76,-12.511 -39.701,-19.928 -77.493,-26.221 -9.136,-1.521 -23.085,-3.495 -32.046,-3.495 -55.987,-0.042 -99.88,20.357 -111.301,26.896 -1.603,0.913 -2.414,1.414 -2.448,1.433 l 2.919,3.908 -3.729,-6.185 c -2.634,-4.038 54.19,-39.228 120.682,-39.287 9.31,0 18.812,0.696 28.374,2.29 38.316,6.388 64.801,15.548 84.77,28.854 19.975,13.301 33.167,30.692 44.938,52.704 7.469,13.984 11.885,32.199 11.007,50.618 -3.329,69.88 -56.496,73.447 -56.496,73.447 z M 457.382,419.968 c 0,0 0,-0.001 0,0 l 0,0 0.002,0.004 -0.002,-0.004 0,0 z" id="path3643" inkscape:connector-curvature="0" style="fill:#8e6a30"/>
	</g>
	<g id="g3645">
		<path d="m 697.458,586.591 c -2.433,0 -4.94,-0.228 -7.503,-0.691 l 0,0 1.244,-6.883 c 2.178,0.396 4.264,0.58 6.259,0.58 l 0,0 c 13.34,-0.019 23.515,-8.316 30.842,-21.797 l 0,0 c 7.249,-13.417 11.064,-31.689 11.051,-49.651 l 0,0 c 0.014,-16.877 -3.358,-33.479 -9.896,-45.512 l 0,0 C 718.22,441.924 706.19,426.367 687.892,414.294 l 0,0 c -18.312,-12.071 -43.151,-20.71 -80.04,-26.782 l 0,0 c -8.919,-1.47 -17.811,-2.116 -26.557,-2.116 l 0,0 c -54.649,-0.041 -103.468,25.421 -114.617,31.731 l 0,0 c -1.564,0.88 -2.357,1.363 -2.391,1.38 l 0,0 -3.641,-5.967 c 0.279,-0.125 55.745,-34.079 120.648,-34.137 l 0,0 c 9.087,0 18.361,0.671 27.695,2.211 l 0,0 c 37.402,6.163 63.254,15 82.745,27.84 l 0,0 c 19.498,12.834 32.376,29.613 43.865,50.854 l 0,0 c 7.29,13.492 10.729,31.048 10.743,48.84 l 0,0 c -0.015,18.939 -3.924,38.142 -11.887,52.97 l 0,0 c -7.868,14.752 -20.379,25.473 -36.955,25.473 l 0,0 c -0.015,0 -0.029,0 -0.042,0 l 0,0 z M 464.285,418.51 c 0,0 0,-0.003 10e-4,-0.003 l 0,0 0.003,0.005 -0.004,-0.002 0,0 z" id="path3647" inkscape:connector-curvature="0"/>
	</g>
	<g id="g3649">
		<path d="m 745.056,497.682 c 0,0 51.564,-71.959 18.063,-112.453 -33.503,-35.25 -82.155,19.81 -82.155,19.81 0,0 52.73,29.133 64.092,92.643 z" id="path3651" inkscape:connector-curvature="0" style="fill:#9b5c5c"/>
		<path d="m 736.898,478.453 c 0,0 34.086,-55.935 15.731,-82.154 -25.345,-27.093 -63.801,15.732 -63.801,15.732 0,0 36.708,15.732 48.07,66.422 z" id="path3653" inkscape:connector-curvature="0" style="fill:#c47474"/>
		<path d="m 741.613,498.296 c -9.61,-54.034 -50.338,-82.727 -60.225,-88.925 l 0,0 c -1.401,-0.881 -2.117,-1.275 -2.117,-1.275 l 0,0 -3.813,-2.107 2.883,-3.265 c 0.102,-0.111 7.203,-8.154 17.987,-16.277 l 0,0 c 10.797,-8.084 25.263,-16.444 40.653,-16.502 l 0,0 c 9.835,-0.041 19.983,3.681 28.673,12.876 l 0,0 0.077,0.085 0.08,0.095 c 8.829,10.66 12.129,23.405 12.118,36.163 l 0,0 c -0.155,39.241 -29.941,80.263 -30.034,80.553 l 0,0 -4.825,6.732 -1.457,-8.153 0,0 z m 3.441,-0.614 3.442,-0.618 -3.442,0.618 0,0 z m 1.677,-8.93 c 2.7,-4.347 6.293,-10.514 9.874,-17.803 l 0,0 c 7.233,-14.672 14.356,-33.935 14.331,-51.786 l 0,0 c -0.017,-11.584 -2.902,-22.449 -10.446,-31.625 l 0,0 c -7.535,-7.825 -15.388,-10.562 -23.508,-10.599 l 0,0 c -11.132,-0.037 -22.892,5.62 -32.478,12.234 l 0,0 c -8.033,5.517 -14.528,11.607 -18.047,15.153 l 0,0 c 11.87,7.736 48.112,34.804 60.274,84.426 l 0,0 z" id="path3655" inkscape:connector-curvature="0"/>
	</g>
	<g id="g3657">
		<path d="m 703.978,422.519 c 0,0 33.793,-43.116 43.117,-23.307 9.056,19.241 -5.827,57.101 -11.361,68.462 -6.41,-13.4 -12.237,-25.344 -31.756,-45.155 z" id="path3659" inkscape:connector-curvature="0" style="fill:#d3d2d1"/>
		<path d="m 709.804,432.133 c 0,0 25.346,-36.708 30.59,-20.102 6.403,20.278 -3.206,34.959 -8.74,46.32 -6.409,-13.399 -2.331,-6.407 -21.85,-26.218 z" id="path3661" inkscape:connector-curvature="0" style="fill:#f4f4f4"/>
		<path d="m 732.577,469.182 c -6.423,-13.376 -11.815,-24.597 -31.089,-44.212 l 0,0 2.489,-2.451 2.751,2.158 -2.751,-2.158 -2.489,2.451 -2.16,-2.19 1.899,-2.418 c 0.13,-0.121 12.639,-16.239 25.29,-24.801 l 0,0 c 4.271,-2.829 8.576,-4.997 13.17,-5.049 l 0,0 c 4.271,-0.14 8.557,2.587 10.569,7.213 l 0,0 c 2.334,4.976 3.183,10.708 3.188,16.713 l 0,0 c -0.067,20.76 -10.144,45.561 -14.568,54.763 l 0,0 -3.172,6.522 -3.127,-6.541 0,0 z m 3.018,-9.788 c 4.63,-11.234 10.91,-30.094 10.854,-44.956 l 0,0 c 0.008,-5.34 -0.793,-10.094 -2.518,-13.736 l 0,0 c -1.478,-2.782 -2.381,-3.065 -4.245,-3.201 l 0,0 c -3.185,-0.157 -9.318,3.307 -14.908,8.188 l 0,0 c -5.656,4.813 -11.069,10.727 -14.452,14.659 l 0,0 c -0.632,0.73 -1.19,1.392 -1.667,1.961 l 0,0 c 14.876,15.44 21.591,26.455 26.936,37.085 l 0,0 z" id="path3663" inkscape:connector-curvature="0"/>
	</g>
	<g id="g3665">
		<path d="m 624.738,386.977 c 0,0 18.936,-44.865 31.172,-42.242 12.235,2.622 14.275,56.519 14.275,56.519 0,0 -14.275,-7.869 -45.447,-14.277 z" id="path3667" inkscape:connector-curvature="0" style="fill:#d3d2d1"/>
		<path d="m 624.738,386.977 c 0,0 18.936,-44.865 31.172,-42.242 12.235,2.622 14.275,56.519 14.275,56.519 0,0 -14.275,-7.869 -45.447,-14.277 z" id="path3669" inkscape:connector-curvature="0" style="fill:#d3d2d1"/>
		<path d="m 633.767,389.308 c 0,0 11.945,-33.793 20.103,-31.464 6.931,1.98 5.243,37.582 5.243,37.582 0,0 5.826,0.29 -25.346,-6.118 z" id="path3671" inkscape:connector-curvature="0" style="fill:#f4f4f4"/>
		<path d="m 668.497,404.313 c -0.003,0 -0.148,-0.084 -0.562,-0.292 l 0,0 c -0.413,-0.208 -1.053,-0.522 -1.927,-0.92 l 0,0 c -1.746,-0.801 -4.423,-1.953 -8.074,-3.305 l 0,0 c -7.302,-2.708 -18.489,-6.228 -33.9,-9.397 l 0,0 0.704,-3.425 3.22,1.361 -3.22,-1.361 -0.704,3.425 -4.177,-0.859 1.661,-3.925 c 0.098,-0.146 10.018,-23.951 20.807,-36.647 l 0,0 c 3.688,-4.163 7.371,-7.653 12.524,-7.843 l 0,0 c 0.582,0 1.196,0.058 1.792,0.19 l 0,0 c 2.771,0.618 4.741,2.471 6.243,4.576 l 0,0 c 1.513,2.138 2.686,4.715 3.713,7.617 l 0,0 c 2.04,5.796 3.453,12.932 4.494,19.96 l 0,0 c 2.073,14.034 2.581,27.582 2.585,27.652 l 0,0 3.501,6.251 -8.68,-3.058 0,0 z m -2.129,-8.696 c -0.269,-4.055 -0.737,-9.853 -1.506,-16.077 l 0,0 c -1.353,-11.582 -4.172,-24.908 -7.675,-29.6 l 0,0 c -0.955,-1.346 -1.724,-1.748 -2.033,-1.795 l 0,0 c -0.088,-0.018 -0.177,-0.029 -0.305,-0.029 l 0,0 c -0.724,-0.077 -2.682,0.76 -4.911,2.942 l 0,0 c -2.232,2.123 -4.704,5.304 -7.081,8.896 l 0,0 c -4.769,7.189 -9.216,16.023 -11.972,21.889 l 0,0 c -0.45,0.955 -0.854,1.832 -1.208,2.609 l 0,0 c 18.276,4.024 30.313,8.453 36.691,11.165 l 0,0 z" id="path3673" inkscape:connector-curvature="0"/>
	</g>
	<g id="g3675">
		<path d="m 568.624,381.133 c 0.403,-1.488 0.624,-3.855 0.618,-6.549 l 0,0 c 0.004,-5.416 -0.811,-12.189 -1.638,-17.534 l 0,0 c -0.824,-5.355 -1.642,-9.262 -1.642,-9.268 l 0,0 6.844,-1.435 c 0.011,0.12 3.408,16.152 3.427,28.237 l 0,0 c -0.006,3.047 -0.202,5.854 -0.847,8.333 l 0,0 -6.762,-1.784 0,0 z" id="path3677" inkscape:connector-curvature="0"/>
	</g>
	<g id="g3679">
		<path d="m 487.522,403.291 c 0,0 -20.684,-58.265 -39.037,-50.981 -18.354,7.282 -19.811,85.359 -19.811,85.359 0,0 35.542,-25.055 58.848,-34.378 z" id="path3681" inkscape:connector-curvature="0" style="fill:#d3d2d1"/>
		<path d="m 475.578,408.534 c 0,0 -8.741,-41.95 -20.977,-38.455 -14.701,4.201 -14.857,61.18 -14.857,61.18 0,0 12.526,-13.401 35.834,-22.725 z" id="path3683" inkscape:connector-curvature="0" style="fill:#f4f4f4"/>
		<path d="m 425.178,437.602 c 0.036,-0.17 0.744,-44.01 9.142,-69.963 l 0,0 c 2.928,-8.62 6.327,-15.748 12.862,-18.573 l 0,0 c 1.483,-0.599 3.037,-0.885 4.56,-0.885 l 0,0 c 6.187,0.107 11.142,4.184 15.602,9.279 l 0,0 c 4.457,5.176 8.471,11.809 11.93,18.399 l 0,0 c 6.901,13.171 11.51,26.174 11.542,26.262 l 0,0 -3.293,1.169 3.293,-1.169 1.124,3.168 -3.121,1.248 c -11.25,4.491 -25.896,13.019 -37.597,20.397 l 0,0 c -11.722,7.381 -20.515,13.576 -20.535,13.59 l 0,0 -5.638,3.975 0.129,-6.897 0,0 z m 26.564,-82.43 c -0.668,0.003 -1.292,0.115 -1.968,0.385 l 0,0 c -1.935,0.667 -4.571,3.699 -6.734,8.738 l 0,0 c -2.194,4.98 -4.023,11.657 -5.46,18.905 l 0,0 c -2.893,14.505 -4.273,31.294 -4.902,42.354 l 0,0 c -0.112,1.967 -0.198,3.751 -0.27,5.309 l 0,0 c 10.404,-7.035 32.92,-21.738 50.663,-29.496 l 0,0 c -0.184,-0.472 -0.385,-0.992 -0.608,-1.557 l 0,0 c -1.144,-2.906 -2.801,-6.934 -4.839,-11.399 l 0,0 c -4.061,-8.921 -9.727,-19.634 -15.574,-26.387 l 0,0 c -3.802,-4.484 -7.603,-6.858 -10.14,-6.858 l 0,0 c -0.057,10e-4 -0.115,0.003 -0.168,0.006 l 0,0 z" id="path3685" inkscape:connector-curvature="0"/>
	</g>
	<g id="g3687">
		<path d="m 301.085,473.811 c 0,0 -18.962,34.11 -23.813,-21.612 -4.796,-55.104 -10.434,-83.722 35.011,-71.477 56.597,15.251 -11.198,93.089 -11.198,93.089 z" id="path3689" inkscape:connector-curvature="0" style="fill:#d3d2d1"/>
		<path d="m 303.401,448.738 c 0,0 -12.235,18.354 -16.605,-4.37 -10.445,-54.315 -19.47,-77.578 25.487,-63.646 41.809,12.956 -8.882,68.016 -8.882,68.016 z" id="path3691" inkscape:connector-curvature="0" style="fill:#f4f4f4"/>
		<path d="m 283.425,485.31 c -1.728,-1.515 -3.109,-3.601 -4.319,-6.337 l 0,0 c -2.4,-5.482 -4.196,-13.738 -5.317,-26.472 l 0,0 c -1.532,-17.631 -3.169,-32.599 -3.177,-44.658 l 0,0 c 0.029,-9.879 1.022,-17.902 4.735,-24.019 l 0,0 c 3.712,-6.206 10.564,-9.517 19.38,-9.405 l 0,0 c 5.216,0.004 11.273,0.988 18.463,2.928 l 0,0 c 8.844,2.371 15.241,6.337 19.362,11.571 l 0,0 c 4.128,5.227 5.784,11.529 5.773,17.974 l 0,0 c -0.083,15.448 -8.874,32.422 -17.421,45.907 l 0,0 c -7.806,12.213 -15.56,21.41 -16.96,23.049 l 0,0 c -0.487,0.832 -1.848,3.06 -3.809,5.387 l 0,0 c -2.472,2.774 -5.689,6.217 -10.771,6.404 l 0,0 c -0.03,0 -0.061,0 -0.091,0 l 0,0 c -2.03,-0.001 -4.164,-0.834 -5.848,-2.329 l 0,0 z M 281.3,387.488 c -2.538,4.034 -3.723,10.974 -3.694,20.354 l 0,0 c -0.007,11.435 1.605,26.352 3.148,44.051 l 0,0 c 1.482,18.484 5.118,26.567 7.265,28.142 l 0,0 c 0.676,0.558 0.962,0.586 1.345,0.607 l 0,0 c 0.665,0.08 2.332,-0.712 3.911,-2.288 l 0,0 c 1.58,-1.518 3.037,-3.523 3.893,-4.842 l 0,0 c 0.575,-0.88 0.86,-1.4 0.864,-1.404 l 0,0 0.174,-0.317 0.246,-0.278 c 0,-0.006 2.031,-2.335 5.146,-6.343 l 0,0 c 3.112,-4.008 7.271,-9.651 11.415,-16.139 l 0,0 c 8.32,-12.934 16.402,-29.418 16.319,-42.141 l 0,0 c -0.011,-5.316 -1.294,-9.853 -4.272,-13.648 l 0,0 c -2.988,-3.788 -7.862,-7.03 -15.686,-9.148 l 0,0 c -6.806,-1.839 -12.326,-2.689 -16.645,-2.686 l 0,0 c -7.44,0.11 -10.899,2.138 -13.429,6.08 l 0,0 z" id="path3693" inkscape:connector-curvature="0"/>
	</g>
	<g id="g3695">
		<path d="m 352.345,511.665 c 0,0 -27.094,-83.028 -3.497,-97.013 23.599,-13.983 44.574,4.37 55.061,43.699 -12.235,11.364 -40.202,41.953 -51.564,53.314 z" id="path3697" inkscape:connector-curvature="0" style="fill:#d3d2d1"/>
		<path d="m 352.345,511.665 c 0,0 -27.094,-83.028 -3.497,-97.013 23.599,-13.983 44.574,4.37 55.061,43.699 -12.235,11.364 -40.202,41.953 -51.564,53.314 z" id="path3699" inkscape:connector-curvature="0" style="fill:#d3d2d1"/>
		<path d="m 355.841,507.295 c 0,0 -14.544,-64.566 3.495,-76.911 16.605,-11.361 27.093,11.362 38.455,33.212 -12.235,11.361 -30.588,32.337 -41.95,43.699 z" id="path3701" inkscape:connector-curvature="0" style="fill:#f4f4f4"/>
		<path d="m 349.021,512.749 c -0.03,-0.177 -13.275,-40.45 -13.322,-70.554 l 0,0 c 0.003,-6.586 0.626,-12.721 2.304,-18.009 l 0,0 c 1.669,-5.256 4.499,-9.837 9.063,-12.544 l 0,0 c 5.741,-3.404 11.554,-5.151 17.23,-5.146 l 0,0 c 9.819,-0.011 18.712,5.222 25.865,14.035 l 0,0 c 7.198,8.841 12.963,21.348 17.125,36.919 l 0,0 0.544,2.029 -1.542,1.432 c -12.012,11.147 -40.014,41.758 -51.471,53.226 l 0,0 -4.031,4.024 -1.765,-5.412 0,0 z m 3.322,-1.085 3.325,-1.084 -3.325,1.084 0,0 z m -1.713,-94.005 c -2.598,1.532 -4.592,4.368 -5.963,8.649 l 0,0 c -1.357,4.245 -1.981,9.762 -1.978,15.887 l 0,0 c -0.025,21.149 7.284,49.199 10.958,61.739 l 0,0 c 0.109,0.375 0.215,0.737 0.317,1.084 l 0,0 c 12.333,-12.746 34.366,-36.643 46.018,-47.771 l 0,0 c -3.922,-13.953 -9.212,-24.925 -15.24,-32.297 l 0,0 c -6.356,-7.744 -13.206,-11.451 -20.447,-11.461 l 0,0 c -4.237,0.001 -8.779,1.277 -13.665,4.17 l 0,0 z" id="path3703" inkscape:connector-curvature="0"/>
	</g>
	<g id="g3705">
		<path d="m 336.904,454.564 c 0,0 1.748,-12.818 -12.236,-0.582 -13.983,12.235 -58.266,62.345 -26.219,73.414 32.046,11.071 51.857,9.906 38.455,-72.832 z" id="path3707" inkscape:connector-curvature="0" style="fill:#d3d2d1"/>
		<path d="m 330.495,474.957 c 0,0 0,-12.235 -13.983,0 -13.984,12.237 -42.826,42.825 -18.063,52.439 31.606,12.271 40.786,1.749 32.046,-52.439 z" id="path3709" inkscape:connector-curvature="0" style="fill:#f4f4f4"/>
		<path d="m 320.618,535.824 c -7.064,-0.022 -14.832,-2.212 -23.312,-5.124 l 0,0 c -4.598,-1.58 -8.146,-4.039 -10.462,-7.257 l 0,0 c -2.329,-3.209 -3.296,-7.031 -3.29,-10.897 l 0,0 c 0.12,-11.268 7.348,-23.805 15.58,-35.188 l 0,0 c 8.298,-11.34 17.766,-21.215 23.228,-26.006 l 0,0 c 4.813,-4.124 7.979,-6.038 11.522,-6.166 l 0,0 c 2.723,-0.119 5.081,1.96 5.726,3.708 l 0,0 c 0.784,1.751 0.842,3.296 0.859,4.432 l 0,0 c -10e-4,0.452 -0.021,0.837 -0.043,1.126 l 0,0 c 2.87,17.823 4.213,31.929 4.218,43.089 l 0,0 c -0.022,13.577 -1.929,22.879 -6.085,29.254 l 0,0 c -4.072,6.335 -10.661,9.034 -17.57,9.034 l 0,0 c -0.124,-10e-4 -0.248,-0.003 -0.371,-0.005 l 0,0 z m 6.354,-79.213 c -4.946,4.318 -14.286,14.041 -22.195,24.869 l 0,0 c -7.97,10.783 -14.346,22.975 -14.227,31.065 l 0,0 c 0.007,2.77 0.639,4.961 1.962,6.808 l 0,0 c 1.335,1.838 3.485,3.487 7.079,4.738 l 0,0 c 8.204,2.848 15.464,4.76 21.027,4.741 l 0,0 c 5.64,-0.102 9.157,-1.564 12.102,-5.887 l 0,0 c 2.94,-4.392 4.957,-12.486 4.933,-25.406 l 0,0 c 0.002,-10.688 -1.317,-24.626 -4.201,-42.415 l 0,0 3.453,-0.561 3.463,0.464 -3.463,-0.464 -3.453,0.561 -0.083,-0.516 0.069,-0.513 c 0,0 0.003,-0.014 0.013,-0.156 l 0,0 c 0.011,-0.145 0.026,-0.365 0.026,-0.615 l 0,0 c 0.017,-0.349 -0.035,-0.746 -0.093,-1.051 l 0,0 c -0.95,0.327 -3.207,1.455 -6.412,4.338 l 0,0 z" id="path3711" inkscape:connector-curvature="0"/>
	</g>
	<g id="g3713">
		<path d="m 268.733,416.692 c 0,0 6.41,54.186 12.819,72.831 6.41,18.646 -30.881,29.132 -37.872,24.472 -20.976,-13.983 -0.583,-100.799 25.053,-97.303 z" id="path3715" inkscape:connector-curvature="0" style="fill:#d3d2d1"/>
		<path d="m 264.072,433.007 c 0,0 11.071,37.871 17.479,56.517 6.41,18.646 -24.797,28.228 -30.589,22.142 -17.188,-18.062 1.749,-71.668 13.11,-78.659 z" id="path3717" inkscape:connector-curvature="0" style="fill:#f4f4f4"/>
		<path d="m 241.74,516.902 c -3.999,-2.69 -6.477,-7.029 -8.034,-12.079 l 0,0 c -1.553,-5.079 -2.213,-11.015 -2.217,-17.437 l 0,0 c 0.113,-22.879 8.223,-51.877 20.68,-66.183 l 0,0 c 4.183,-4.73 9.208,-8.088 15.053,-8.116 l 0,0 c 0.66,0 1.333,0.042 2.011,0.145 l 0,0 -0.5,3.459 0.5,-3.459 2.655,0.381 0.315,2.664 c 0.007,0.03 1.597,13.497 3.992,29.314 l 0,0 c 2.376,15.771 5.629,34.021 8.664,42.797 l 0,0 c 0.62,1.801 0.927,3.608 0.927,5.372 l 0,0 c 0.004,4.299 -1.829,8.118 -4.451,11.17 l 0,0 c -2.634,3.073 -6.075,5.533 -9.801,7.527 l 0,0 c -7.484,3.959 -16.068,6.1 -22.491,6.133 l 0,0 c -2.721,-0.042 -5.083,-0.288 -7.303,-1.688 l 0,0 z m 34.281,-16.513 c 1.852,-2.187 2.767,-4.331 2.771,-6.628 l 0,0 c 0,-0.959 -0.162,-1.977 -0.546,-3.104 l 0,0 c -3.372,-9.871 -6.531,-28.039 -8.961,-44.021 l 0,0 c -1.719,-11.34 -3.027,-21.479 -3.639,-26.396 l 0,0 c -2.537,0.518 -5.35,2.329 -8.239,5.597 l 0,0 c -3.474,3.913 -6.827,9.72 -9.653,16.493 l 0,0 c -5.68,13.547 -9.287,30.961 -9.272,45.057 l 0,0 c -0.004,5.925 0.637,11.261 1.908,15.384 l 0,0 c 1.268,4.152 3.137,6.941 5.227,8.312 l 0,0 c 0.011,0.082 1.428,0.557 3.427,0.515 l 0,0 c 7.322,0.143 21.55,-4.555 26.977,-11.209 l 0,0 z" id="path3719" inkscape:connector-curvature="0"/>
	</g>
	<g id="g3721">
		<path d="m 179.296,480.201 c 0,0 6.992,145.082 81.281,151.2 53.162,4.379 86.524,-18.354 105.752,-43.699 19.227,-25.347 43.699,-61.179 98.76,-82.155 -54.188,41.078 -83.028,81.281 -58.558,83.902 24.471,2.623 67.297,-37.58 67.297,-37.58 0,0 20.102,34.085 57.684,25.345 37.581,-8.739 49.816,-63.802 49.816,-63.802 0,0 4.417,50.37 22.724,56.811 47.195,16.605 88.272,-17.479 88.272,-17.479 0,0 -13.983,28.841 13.109,31.462 -43.698,6.993 -69.918,33.212 -130.223,13.984 -60.306,15.732 -106.627,-3.496 -106.627,-3.496 0,0 -47.194,26.22 -103.13,24.472 -20.101,12.236 -82.035,31.709 -106.625,27.968 -40.203,-6.119 -80.406,-63.802 -79.532,-166.933 z" id="path3723" inkscape:connector-curvature="0" style="fill:#8e6a30"/>
	</g>
	<g id="g3725">
		<path d="m 179.296,480.201 c 0,0 9.613,150.326 83.903,156.443 53.161,4.379 88.272,-23.597 107.499,-48.942 19.229,-25.347 39.331,-61.179 94.392,-82.155 -54.188,41.078 -96.139,94.391 -71.667,97.013 24.471,2.622 81.28,-35.834 81.28,-35.834 0,0 20.102,29.717 57.683,20.977 37.582,-8.741 48.07,-46.321 48.07,-46.321 0,0 2.669,33.763 20.976,40.203 47.194,16.605 90.894,-28.841 90.894,-28.841 0,0 -13.983,28.841 13.109,31.462 -43.698,6.993 -69.918,33.212 -130.223,13.984 -60.306,15.732 -106.627,-3.496 -106.627,-3.496 0,0 -47.194,26.22 -103.13,24.472 -20.101,12.236 -82.035,31.709 -106.625,27.968 -40.205,-6.119 -80.408,-63.802 -79.534,-166.933 z" id="path3727" inkscape:connector-curvature="0" style="fill:#020202"/>
	</g>
	<g id="g3729">
		<path d="m 819.344,426.599 c 3.813,52.579 -47.776,60.014 -47.776,60.014 0,0 55.96,-45.208 37.289,-104.88 8.157,12.819 12.5,38.897 12.5,38.897" id="path3731" inkscape:connector-curvature="0" style="fill:#8e6a30"/>
	</g>
	<g id="g3733">
		<path d="m 821.675,416.692 c 5.827,46.032 -32.63,55.936 -32.63,55.936 0,0 39.621,-32.046 27.386,-84.486 4.661,12.236 5.244,28.55 5.244,28.55" id="path3735" inkscape:connector-curvature="0" style="fill:#020202"/>
	</g>
	<g id="g3737">
		<path d="m 95.381,654.792 c 0,0 47.373,-108.479 64.148,-101.293 16.776,7.182 34.874,29.142 33.514,41.673 -2.041,18.798 -64.513,41.764 -97.662,59.62 z" id="path3739" inkscape:connector-curvature="0" style="fill:#8e8d8d"/>
		<path d="m 117.826,629.945 c 0,0 34.497,-71.28 51.273,-64.093 16.775,7.183 16.509,8.444 15.15,20.976 -2.041,18.797 -33.274,25.26 -66.423,43.117 z" id="path3741" inkscape:connector-curvature="0" style="fill:#c9c9c9"/>
		<path d="m 92.178,653.393 c 0.015,-0.036 8.529,-19.534 19.646,-41.521 l 0,0 c 11.202,-22.04 24.657,-46.33 35.731,-56.894 l 0,0 c 3.241,-2.98 6.325,-5.213 10.268,-5.319 l 0,0 c 1.021,-0.002 2.097,0.195 3.081,0.623 l 0,0 c 8.81,3.797 17.473,10.98 24.163,18.954 l 0,0 c 6.629,8.032 11.437,16.656 11.542,24.558 l 0,0 c 0,0.585 -0.032,1.164 -0.091,1.753 l 0,0 c -0.863,6.578 -5.941,11.806 -12.815,17.139 l 0,0 c -6.958,5.294 -16.125,10.544 -26.223,15.754 l 0,0 c -20.172,10.4 -44.102,20.62 -60.443,29.43 l 0,0 -8.915,4.804 4.056,-9.281 0,0 z m 6.405,2.796 -3.204,-1.398 3.204,1.398 0,0 z m 55.659,-97.757 c -1.774,1.369 -3.911,3.546 -6.187,6.319 l 0,0 c -4.569,5.557 -9.741,13.483 -14.908,22.326 l 0,0 c -10.349,17.691 -20.742,39.071 -27.383,53.311 l 0,0 c -1.153,2.474 -2.193,4.73 -3.1,6.716 l 0,0 c 25.131,-12.521 59.716,-26.906 76.798,-39.98 l 0,0 c 6.449,-4.816 9.943,-9.511 10.1,-12.309 l 0,0 c 0.037,-0.336 0.051,-0.673 0.051,-1.021 l 0,0 c 0.106,-4.8 -3.79,-12.862 -9.909,-20.073 l 0,0 c -6.055,-7.266 -14.184,-13.879 -21.567,-17.015 l 0,0 c -0.08,-0.032 -0.143,-0.054 -0.315,-0.054 l 0,0 c -0.019,-0.003 -0.041,-0.004 -0.065,-0.004 l 0,0 c -0.492,0 -1.818,0.448 -3.515,1.784 l 0,0 z" id="path3743" inkscape:connector-curvature="0"/>
	</g>
	<g id="g3745">
		<path d="m 126.566,359.009 c 0,0 -12.237,46.028 9.904,83.319 1.167,-12.817 1.167,-19.81 1.167,-19.81 0,0 -11.654,-18.645 -11.071,-63.509 z" id="path3747" inkscape:connector-curvature="0"/>
	</g>
	<circle cx="454.892" cy="327.255" r="3.2049999" id="circle3749" sodipodi:cx="454.892" sodipodi:cy="327.255" sodipodi:rx="3.2049999" sodipodi:ry="3.2049999" style="fill:#020202"/>
	<circle cx="489.561" cy="350.26901" r="5.5349998" id="circle3751" sodipodi:cx="489.561" sodipodi:cy="350.26901" sodipodi:rx="5.5349998" sodipodi:ry="5.5349998" style="fill:#020202"/>
	<circle cx="671.34998" cy="336.28601" r="5.5339999" id="circle3753" sodipodi:cx="671.34998" sodipodi:cy="336.28601" sodipodi:rx="5.5339999" sodipodi:ry="5.5339999" style="fill:#020202"/>
	<circle cx="465.08801" cy="342.112" r="5.5349998" id="circle3755" sodipodi:cx="465.08801" sodipodi:cy="342.112" sodipodi:rx="5.5349998" sodipodi:ry="5.5349998" style="fill:#020202"/>
	<circle cx="507.332" cy="361.63199" r="2.622" id="circle3757" sodipodi:cx="507.332" sodipodi:cy="361.63199" sodipodi:rx="2.622" sodipodi:ry="2.622" style="fill:#020202"/>
	<circle cx="439.45001" cy="338.617" r="4.079" id="circle3759" sodipodi:cx="439.45001" sodipodi:cy="338.617" sodipodi:rx="4.079" sodipodi:ry="4.079" style="fill:#020202"/>
	<circle cx="483.73401" cy="326.96301" r="4.079" id="circle3761" sodipodi:cx="483.73401" sodipodi:cy="326.96301" sodipodi:rx="4.079" sodipodi:ry="4.079" style="fill:#020202"/>
	<circle cx="414.10599" cy="347.065" r="2.622" id="circle3763" sodipodi:cx="414.10599" sodipodi:cy="347.065" sodipodi:rx="2.622" sodipodi:ry="2.622" style="fill:#020202"/>
	<circle cx="423.72" cy="361.922" r="4.6609998" id="circle3765" sodipodi:cx="423.72" sodipodi:cy="361.922" sodipodi:rx="4.6609998" sodipodi:ry="4.6609998" style="fill:#020202"/>
	<circle cx="537.62903" cy="362.797" r="4.3699999" id="circle3767" sodipodi:cx="537.62903" sodipodi:cy="362.797" sodipodi:rx="4.3699999" sodipodi:ry="4.3699999" style="fill:#020202"/>
	<circle cx="689.995" cy="351.435" r="4.3699999" id="circle3769" sodipodi:cx="689.995" sodipodi:cy="351.435" sodipodi:rx="4.3699999" sodipodi:ry="4.3699999" style="fill:#020202"/>
	<circle cx="520.73199" cy="369.20599" r="3.204" id="circle3771" sodipodi:cx="520.73199" sodipodi:cy="369.20599" sodipodi:rx="3.204" sodipodi:ry="3.204" style="fill:#020202"/>
	<circle cx="681.83698" cy="368.91501" r="3.204" id="circle3773" sodipodi:cx="681.83698" sodipodi:cy="368.91501" sodipodi:rx="3.204" sodipodi:ry="3.204" style="fill:#020202"/>
	<circle cx="495.09601" cy="375.61499" r="3.7880001" id="circle3775" sodipodi:cx="495.09601" sodipodi:cy="375.61499" sodipodi:rx="3.7880001" sodipodi:ry="3.7880001" style="fill:#020202"/>
	<circle cx="646.87598" cy="313.56299" r="2.9130001" id="circle3777" sodipodi:cx="646.87598" sodipodi:cy="313.56299" sodipodi:rx="2.9130001" sodipodi:ry="2.9130001" style="fill:#020202"/>
	<circle cx="632.31201" cy="332.79099" r="2.914" id="circle3779" sodipodi:cx="632.31201" sodipodi:cy="332.79099" sodipodi:rx="2.914" sodipodi:ry="2.914" style="fill:#020202"/>
	<circle cx="608.13098" cy="343.569" r="3.2049999" id="circle3781" sodipodi:cx="608.13098" sodipodi:cy="343.569" sodipodi:rx="3.2049999" sodipodi:ry="3.2049999" style="fill:#020202"/>
	<circle cx="617.16302" cy="358.427" r="4.079" id="circle3783" sodipodi:cx="617.16302" sodipodi:cy="358.427" sodipodi:rx="4.079" sodipodi:ry="4.079" style="fill:#020202"/>
	<circle cx="594.43903" cy="363.08801" r="2.3310001" id="circle3785" sodipodi:cx="594.43903" sodipodi:cy="363.08801" sodipodi:rx="2.3310001" sodipodi:ry="2.3310001" style="fill:#020202"/>
	<circle cx="595.021" cy="347.35599" r="2.3299999" id="circle3787" sodipodi:cx="595.021" sodipodi:cy="347.35599" sodipodi:rx="2.3299999" sodipodi:ry="2.3299999" style="fill:#020202"/>
	<circle cx="649.49902" cy="331.91699" r="3.7869999" id="circle3789" sodipodi:cx="649.49902" sodipodi:cy="331.91699" sodipodi:rx="3.7869999" sodipodi:ry="3.7869999" style="fill:#020202"/>
</g>
<path d="m 432.78443,465.30467 c -7.21,-10.707 -28.623,-19.229 -42.607,-11.362 -13.983,7.865 -12.235,12.672 -12.235,12.672 0,0 48.725,-0.874 48.725,24.472 4.807,2.621 13.327,-15.077 6.117,-25.782 z" id="path3791" inkscape:connector-curvature="0" style="fill:#d39797"/>
<path d="m 436.06143,504.53004 c 0,0 20.935,-6.652 30.59,-1.093 7.21,4.151 17.916,16.824 17.916,16.824 0,0 -0.874,-17.043 -9.832,-24.471 -8.958,-7.429 -17.479,-7.429 -26.22,-5.462 -8.739,1.966 -12.89,9.395 -12.454,14.202 z" id="path3793" inkscape:connector-curvature="0" style="fill:#d39797"/>
<path d="m 342.89999,625.02367 c 0,0 17.48,-1.747 22.141,-6.991 -6.992,14.568 -16.315,14.566 -22.141,6.991 z" id="path3795" inkscape:connector-curvature="0" style="fill:#d39797"/>
</svg>
