<?xml version="1.0" encoding="utf-8"?>
<!-- Generator: Adobe Illustrator 26.5.0, SVG Export Plug-In . SVG Version: 6.00 Build 0)  -->
<svg version="1.1" id="Livello_1" xmlns="http://www.w3.org/2000/svg" xmlns:xlink="http://www.w3.org/1999/xlink" x="0px" y="0px"
	 viewBox="0 0 863.7 305" style="enable-background:new 0 0 863.7 305;" xml:space="preserve">
<style type="text/css">
	.st0{fill:#FFFFFF;}
	.st1{fill:#C6B784;}
	.st2{fill:#00A04D;}
	.st3{fill:#E40331;}
</style>
<g>
	<g>
		<g>
			<g>
				<g>
					<g>
						<path class="st0" d="M174.1,61.2c-12.9-3.6-26-6.3-39.3-8.1c-13.2-1.8-26.6-2.7-40-2.7h-0.1c-26.8,0-53.5,3.6-79.3,10.8
							L12.6,62v153.3c0,45.3,36.9,82.2,82.2,82.2s82.2-36.9,82.2-82.2V62L174.1,61.2z M169.1,215.3c0,41-33.4,74.4-74.4,74.4
							s-74.4-33.4-74.4-74.4V67.9c24.3-6.5,49.3-9.8,74.4-9.8h0.1c25.1,0,50.1,3.3,74.4,9.8L169.1,215.3L169.1,215.3L169.1,215.3z"
							/>
					</g>
				</g>
				<g>
					<path class="st0" d="M27.8,75.4v41h8.4v-41H27.8z"/>
					<path class="st0" d="M41,75.4v7.8h6.9v33.2h8.4V83.1h6.9v-7.8H41V75.4z"/>
					<path class="st0" d="M79.2,75.4h-7.8l-11.2,41h8.5l2-7.8h9.4l2.1,7.8h8.5L79.2,75.4z M72.8,100.8l2.6-13.4l2.6,13.4H72.8z"/>
					<path class="st0" d="M103.2,108.6V75.4h-8.4v41h19.2v-7.8H103.2z"/>
					<path class="st0" d="M119,75.4v41h8.4v-41H119z"/>
					<path class="st0" d="M150.1,75.4h-7.8l-11.2,41h8.5l2-7.8h9.4l2.1,7.8h8.5L150.1,75.4z M143.6,100.8l2.6-13.4l2.6,13.4H143.6z"
						/>
				</g>
				<g>
					<path class="st1" d="M83,125.1v-2.8h-6.9v15.4h3.1v-7H83v-2.8h-3.8v-2.8C79.2,125.1,83,125.1,83,125.1z"/>
					<path class="st1" d="M85.1,122.3v15.4h3.1v-15.4C88.2,122.3,85.1,122.3,85.1,122.3z"/>
					<path class="st1" d="M95.3,129.4v2.8h2.6c0,0.7-0.1,1.4-0.4,1.9c-0.3,0.4-0.6,0.7-1.2,0.8c-0.2,0-0.3,0.1-0.5,0.1
						c-1.7,0-2.4-1.3-2.4-4.9c0-3.5,0.8-4.9,2.4-4.9c0.2,0,0.3,0,0.5,0.1c0.6,0.1,1,0.5,1.3,1.1c0.2,0.4,0.3,0.9,0.3,1.5h3.1
						c-0.2-3.2-1.9-5.3-4.7-5.5c-0.2,0-0.3,0-0.5,0c-3.7,0-5.6,3.1-5.6,7.7c0,4.8,1.8,7.7,5.6,7.7c0.2,0,0.3,0,0.5,0
						c2.9-0.2,4.8-2.5,4.8-5.5v-2.9L95.3,129.4L95.3,129.4z"/>
					<path class="st1" d="M108.1,134.8c-1.4,0-2.5-1.3-2.5-4.8c0-3.6,1.1-4.8,2.5-4.8c1.2,0,1.9,0.6,2,3.3h3.1
						c0-3.4-1.8-6.2-5.4-6.2c-3.3,0-5.4,2.5-5.4,7.7s2.1,7.7,5.4,7.7c3.5,0,5.4-2.6,5.4-6h-3.1C110.1,133.3,109.8,134.8,108.1,134.8
						z"/>
				</g>
				<path class="st2" d="M68.6,143.6v133.1c-24-10.2-40.9-34-40.9-61.7v-71.4H68.6z"/>
				<path class="st0" d="M76.1,143.6h37.2v135.8c-5.9,1.7-12.2,2.6-18.6,2.6s-12.7-0.9-18.6-2.6V143.6z"/>
				<path class="st3" d="M161.8,143.6V215c0,27.7-16.9,51.5-40.9,61.7V143.6H161.8z"/>
				<rect x="27.8" y="127.1" class="st1" width="40.9" height="5.9"/>
				<rect x="120.8" y="127.1" class="st1" width="40.9" height="5.9"/>
				<polygon class="st0" points="29,39.1 39.2,44.5 37.2,33.2 45.4,25.6 34,23.7 34,23.7 34,23.7 29,13.4 29,13.4 29,13.4 24,23.7 
					24,23.7 24,23.7 12.6,25.6 20.8,33.2 18.8,44.5 				"/>
				<polygon class="st0" points="160.4,39.1 170.6,44.5 168.8,33.2 176.9,25.6 165.6,23.7 165.6,23.7 165.6,23.7 160.4,13.4 
					160.4,13.4 160.4,13.4 155.4,23.7 155.4,23.7 155.4,23.7 144.1,25.6 152.2,33.2 150.3,44.5 				"/>
				<polygon class="st0" points="116.6,33.2 126.8,38.6 124.8,27.3 133.1,19.7 121.8,17.8 121.8,17.8 121.8,17.8 116.6,7.5 
					116.6,7.5 116.6,7.5 111.5,17.8 111.5,17.8 111.5,17.8 100.2,19.7 108.4,27.3 106.5,38.6 				"/>
				<polygon class="st0" points="72.8,33.2 82.9,38.6 81,27.3 89.2,19.7 77.8,17.8 77.8,17.8 77.8,17.8 72.8,7.5 72.8,7.5 72.8,7.5 
					67.8,17.8 67.8,17.8 67.8,17.8 56.4,19.7 64.5,27.3 62.7,38.6 				"/>
			</g>
		</g>
	</g>
	<g>
		<g>
			<g>
				<g>
					<path class="st0" d="M227.6,146.4h26.1v2.9h-22.9V171h21.3v2.9h-21.3v26.9h-3.2L227.6,146.4L227.6,146.4z"/>
					<path class="st0" d="M258.7,146.4h26v2.9H262V171h21.3v2.9H262V198h23.5v2.9h-26.8V146.4L258.7,146.4z"/>
					<path class="st0" d="M291.2,146.4h12.4c11.5,0,19.7,4.8,19.7,27.3S314,201,303.6,201h-12.4V146.4z M303.7,198.2
						c11.6,0,16.5-7.9,16.5-24.6s-3.9-24.6-16.5-24.6h-9.2v49.2L303.7,198.2L303.7,198.2z"/>
					<path class="st0" d="M330.9,146.4h26v2.9h-22.7V171h21.3v2.9h-21.3V198h23.5v2.9h-26.8V146.4z"/>
					<path class="st0" d="M363.4,146.4h15.9c7.5,0,13.5,4.3,13.5,14.3c0,7.2-3.9,12.7-11,13.5v0.1c9,0.5,10.6,6,10.6,13.5v5.8
						c0,3.1,0.4,5.1,1.9,7.4h-3.6c-0.8-1.6-1.3-4.1-1.3-7.4V188c0-7.8-2.1-12.3-11-12.3h-11.8V201h-3.2V146.4z M376.8,173
						c6,0,12.8-2,12.8-12.3c0-7.4-4.1-11.6-10.7-11.6h-12.3v24.1h10.2V173z"/>
					<path class="st0" d="M425.5,183.9H405l-5.2,17h-3.2l17-54.5h4l16.3,54.5h-3.2L425.5,183.9z M415.6,149.6h-0.1l-9.6,31.7H425
						L415.6,149.6z"/>
					<path class="st0" d="M434.8,197.6l27.7-48.3h-26.1v-2.9h29.3v3.2l-27.7,48.3h28v2.9h-31.2L434.8,197.6L434.8,197.6z"/>
					<path class="st0" d="M472,146.4h3.2v54.5H472V146.4z"/>
					<path class="st0" d="M517.9,173.6c0,23.8-9.9,28.1-17.5,28.1c-10.4,0-17.7-7-17.7-28.1s7.6-28.1,17.7-28.1
						C511.2,145.5,517.9,152.4,517.9,173.6z M485.9,173.6c0,15,3.1,25.6,14.4,25.6c10,0,14.3-8.3,14.3-25.6
						c0-14.7-3.2-25.6-14.3-25.6C489.7,148,485.9,158.6,485.9,173.6z"/>
					<path class="st0" d="M529.2,146.4l23.7,49.5h0.1v-49.5h3.2v54.5h-4.1l-23.8-49.5h-0.1v49.5h-3.2v-54.5H529.2z"/>
					<path class="st0" d="M565,146.4h26v2.9h-22.7V171h21.3v2.9h-21.3V198h23.5v2.9H565V146.4z"/>
					<path class="st0" d="M615.8,146.4h3.2v54.5h-3.2V146.4z"/>
					<path class="st0" d="M638.5,149.2H624v-2.9h32.2v2.9h-14.6v51.5h-3.2V149.2L638.5,149.2z"/>
					<path class="st0" d="M684.9,183.9h-20.5l-5.2,17H656l17-54.5h4l16.3,54.5H690L684.9,183.9z M674.8,149.6L674.8,149.6l-9.7,31.7
						h19.1L674.8,149.6z"/>
					<path class="st0" d="M697.5,146.4h3.2v51.5h22.7v2.9h-26L697.5,146.4L697.5,146.4z"/>
					<path class="st0" d="M730,146.4h3.2v54.5H730V146.4z"/>
					<path class="st0" d="M766.5,183.9H746l-5.2,17h-3.2l17-54.5h4l16.3,54.5h-3.2L766.5,183.9z M756.5,149.6L756.5,149.6l-9.7,31.7
						H766L756.5,149.6z"/>
					<path class="st0" d="M783,146.4l23.7,49.5h0.1v-49.5h3.2v54.5H806l-23.8-49.5h-0.1v49.5h-3.2v-54.5H783z"/>
					<path class="st0" d="M842.9,183.9h-20.6l-5.2,17h-3.2l17-54.5h4l16.3,54.5H848L842.9,183.9z M832.9,149.6L832.9,149.6
						l-9.7,31.7h19.1L832.9,149.6z"/>
					<path class="st0" d="M257.1,259.1H257c-1.7,7.4-6.7,11.9-14.3,11.9c-11.9,0-16.7-10.4-16.7-28.1c0-17.1,4.8-28.2,17.5-28.2
						c12.7,0,15.3,11.2,15.3,16.6h-3.3c0-7.4-3.9-13.9-11.9-13.9c-10.8,0-14.4,10.2-14.4,25.4c0,14.6,2.9,25.7,13.9,25.7
						c10.3,0,13.4-10,13.4-19.7v-3.3h-14.9V243h18.2v27.3h-2.5L257.1,259.1L257.1,259.1L257.1,259.1z"/>
					<path class="st0" d="M267.2,215.6h3.2v54.5h-3.2V215.6z"/>
					<path class="st0" d="M282.4,255.7c0,7.6,3.5,12.7,11.9,12.7c7.9,0,11.9-5.1,11.9-12.7v-40h3.2v39.5c0,12.3-7.5,15.9-15.1,15.9
						c-7.5,0-15.1-2.9-15.1-15.9v-39.5h3.2V255.7z"/>
					<path class="st0" d="M351.5,242.9c0,23.8-9.9,28.1-17.5,28.1c-10.4,0-17.7-7-17.7-28.1s7.6-28.1,17.7-28.1
						C344.6,214.6,351.5,221.7,351.5,242.9z M319.5,242.9c0,15,3.1,25.6,14.4,25.6c10,0,14.3-8.3,14.3-25.6
						c0-14.7-3.2-25.6-14.3-25.6C323.2,217.3,319.5,227.9,319.5,242.9z"/>
					<path class="st0" d="M386.8,231.2c0-7.4-3.9-13.9-11.9-13.9c-10.8,0-14.4,10.2-14.4,25.4c0,14.6,2.9,25.7,13.9,25.7
						c10.6,0,13-12.3,13-16.6h3.2c0,6.4-3.2,19.3-16.7,19.3c-11.8,0-16.6-10.4-16.6-28.1c0-17.1,4.8-28.2,17.5-28.2
						S390,226,390,231.4h-3.2L386.8,231.2L386.8,231.2z"/>
					<path class="st0" d="M430.5,242.9c0,23.8-9.9,28.1-17.5,28.1c-10.4,0-17.7-7-17.7-28.1s7.6-28.1,17.7-28.1
						C423.8,214.6,430.5,221.7,430.5,242.9z M398.6,242.9c0,15,3.1,25.6,14.4,25.6c10,0,14.3-8.3,14.3-25.6
						c0-14.7-3.2-25.6-14.3-25.6C402.2,217.3,398.6,227.9,398.6,242.9z"/>
					<path class="st0" d="M484.2,231.2c0-7.4-3.9-13.9-11.9-13.9c-10.8,0-14.4,10.2-14.4,25.4c0,14.6,2.9,25.7,13.9,25.7
						c10.6,0,13-12.3,13-16.6h3.2c0,6.4-3.2,19.3-16.7,19.3c-11.8,0-16.6-10.4-16.6-28.1c0-17.1,4.8-28.2,17.5-28.2
						s15.3,11.2,15.3,16.6h-3.2L484.2,231.2L484.2,231.2z"/>
					<path class="st0" d="M518.4,253.2h-20.5l-5.2,17h-3.2l17-54.5h4l16.3,54.5h-3.2L518.4,253.2z M508.5,218.8h-0.1l-9.6,31.7h19.1
						L508.5,218.8z"/>
					<path class="st0" d="M531.2,215.6h3.2v51.5h22.7v2.9h-26L531.2,215.6L531.2,215.6z"/>
					<path class="st0" d="M591.5,231.2c0-7.4-3.9-13.9-11.9-13.9c-10.8,0-14.4,10.2-14.4,25.4c0,14.6,2.9,25.7,13.9,25.7
						c10.6,0,13-12.3,13-16.6h3.2c0,6.4-3.2,19.3-16.7,19.3c-11.8,0-16.6-10.4-16.6-28.1c0-17.1,4.8-28.2,17.5-28.2
						s15.3,11.2,15.3,16.6h-3.3V231.2z"/>
					<path class="st0" d="M601.9,215.6h3.2v54.5h-3.2V215.6z"/>
					<path class="st0" d="M647.8,242.9c0,23.8-9.9,28.1-17.5,28.1c-10.4,0-17.7-7-17.7-28.1s7.6-28.1,17.7-28.1
						C641,214.6,647.8,221.7,647.8,242.9z M615.8,242.9c0,15,3.1,25.6,14.4,25.6c10,0,14.3-8.3,14.3-25.6c0-14.7-3.2-25.6-14.3-25.6
						C619.5,217.3,615.8,227.9,615.8,242.9z"/>
				</g>
			</g>
		</g>
		<g>
			<path class="st0" d="M270.8,35.4v18.4h-24.9v18.4h24.9v18.4h-24.9v39.9h-19.9v-95H270.8z"/>
			<path class="st0" d="M304.9,35.4v95h-20v-95H304.9z"/>
			<path class="st0" d="M367.4,69c-0.1-9.2-5-16.8-14.7-16.8c-7.6,0-14.7,8.1-14.7,30.7c0,22.6,7.1,30.7,14.7,30.7
				c11.4,0,14.8-9.2,14.7-16.8h-16.7V78.5h37.1v18.6c0,19.7-12.9,34.9-35.2,34.9c-21.3,0-35.2-16-35.2-49.1
				c0-33.1,13.9-49.1,35.2-49.1c20.2,0,33.9,13.6,35.2,35.2H367.4z"/>
			<path class="st0" d="M447.6,73.1c-0.5-16.9-5.5-20.9-13.1-20.9c-9.2,0-16.3,8.1-16.3,30.7c0,22.6,7.1,30.7,16.3,30.7
				c10.4,0,12.6-10,13.1-20.1h20.5c-0.1,21.5-12.3,38.5-35.2,38.5c-21.3,0-35.2-16-35.2-49.1c0-33.1,13.9-49.1,35.2-49.1
				c23.5,0,35.4,17.2,35.2,39.2H447.6z"/>
			<path class="st0" d="M534.5,100.5c0.3,9.3,3.7,13.9,12.3,13.9c7.4,0,11.3-4.5,11.3-11.3c0-16-42-8.1-42-39.9
				c0-18,11.3-29.4,29.8-29.4c18,0,28,8.4,30.8,27h-19.4c-0.3-6.4-4.2-10.5-10.6-10.5c-6.3,0-10.1,4.6-10.1,10.4
				c0,16.9,42,6.7,42,42.7c0,17.7-13.7,28.6-32.2,28.6c-22.2,0-31.9-11.7-31.9-31.5H534.5z"/>
			<path class="st0" d="M622.3,53.8v76.6h-20V53.8H586V35.4h52.5v18.4H622.3z"/>
			<path class="st0" d="M681.5,33.9c23.9,0,35.7,19.4,35.7,49.1c0,29.7-11.8,49.1-35.7,49.1c-23.9,0-35.7-19.4-35.7-49.1
				C645.8,53.3,657.6,33.9,681.5,33.9z M681.5,113.7c10.2,0,15.2-8.4,15.2-30.7c0-22.3-5-30.7-15.2-30.7c-10.2,0-15.2,8.4-15.2,30.7
				C666.3,105.3,671.3,113.7,681.5,113.7z"/>
			<path class="st0" d="M730,35.4h31.5c17.1,0,28.4,14.2,28.4,30.6c0,10.6-5.6,24.1-19.7,26.1l23.9,38.3h-22.8l-21-37h-0.3v37h-20
				V35.4z M749.9,77.4h6.6c8.1,0,12.9-3.9,12.9-11.8s-4.7-11.8-12.9-11.8h-6.6V77.4z"/>
			<path class="st0" d="M803.9,130.5v-95h47.3v18.4h-27.3v17.6h27.3v18.4h-27.3v22.3h27.3v18.4H803.9z"/>
		</g>
	</g>
</g>
</svg>
